<svg width="93" height="80" viewBox="0 0 93 80" fill="none" xmlns="http://www.w3.org/2000/svg">
<path d="M59.1486 0L58.4718 0.00278988C54.6355 0.0177939 50.9433 0.628495 47.3951 1.83489C45.1173 2.45303 41.9163 3.91697 37.7921 6.22671C34.5101 6.31138 32.6842 6.42588 32.3142 6.57021C30.8832 7.20524 30.2247 7.86706 30.3388 8.55568C30.4561 9.20081 30.57 9.56644 30.6806 9.65257C31.9229 8.01791 33.1396 7.63276 34.3305 8.49713C31.8729 9.12647 31.1395 10.4006 32.1304 12.3196C33.1269 10.3351 34.3486 9.48579 35.7958 9.77151C33.9909 11.3104 33.9939 12.4688 35.8048 13.2468C35.6793 11.8833 36.196 11.1258 37.3551 10.9743C37.7537 10.9171 38.2678 10.9435 38.8976 11.0536C38.1929 12.3301 37.9018 13.0393 38.0241 13.1811C38.7563 13.1755 39.3868 13.0259 39.9156 12.7322C40.3615 12.82 40.6846 12.0062 40.885 10.2908L41.8717 9.41211C43.8982 8.00872 45.9102 7.05988 47.9078 6.56561C54.7213 5.50918 59.8187 6.03113 63.2 8.13146C65.9312 9.8025 67.5962 13.1125 68.1949 18.0616C65.9259 13.1098 63.85 10.5948 61.9671 10.5163C56.8852 10.0716 53.7027 11.6862 52.4196 15.36C51.8563 16.8082 52.8496 18.4451 55.3994 20.2707L57.688 20.5115C57.6431 19.7403 57.9621 19.5001 58.6448 19.7909C58.6541 19.1232 58.7208 18.8243 58.8449 18.8941C59.0321 18.7547 59.2765 18.8073 59.5782 19.052L59.5915 18.2887C59.782 18.1647 60.0031 18.2349 60.2549 18.4994C60.943 19.7276 61.1713 20.6012 60.9397 21.1201C60.5312 21.7523 59.7479 22.1289 58.5897 22.2497C58.5066 22.2932 58.4754 22.402 58.4961 22.5761L61.1041 24.9214C57.949 23.6306 54.245 22.6618 49.9918 22.015C46.9251 21.6619 41.9781 21.848 35.1507 22.5734L34.4086 22.2583L33.0839 20.037C32.7043 19.6523 32.3172 19.4664 31.9227 19.4793C31.4228 19.3762 30.5767 19.8665 29.3845 20.9501C31.0768 20.6624 31.8781 20.6807 31.7884 21.005C32.3235 21.2668 32.1786 21.8651 31.3537 22.8C31.1902 22.8911 30.798 22.9202 30.1771 22.8875C28.5683 22.2805 27.4749 22.0188 26.8968 22.1022C25.7612 22.5435 25.0188 23.3375 24.6694 24.4841C24.6708 24.5729 24.6981 24.6166 24.7512 24.6153C25.0525 24.3166 25.8456 24.0198 27.1305 23.7247C27.7656 23.7511 28.5097 24.1023 29.363 24.7783C26.8444 24.5206 25.4672 25.3634 25.2312 27.3067C25.2252 27.5113 25.2456 27.6012 25.2924 27.5763C25.7834 26.9216 26.3315 26.5198 26.9367 26.3709C28.0504 26.2546 28.7747 26.3518 29.1095 26.6624C28.3415 27.2378 27.8985 27.9019 27.7805 28.6548C27.5092 29.1695 27.8695 30.2491 28.8614 31.8936C28.3939 29.5161 29.0322 28.1408 30.7764 27.7676C30.3053 29.0484 30.479 30.2756 31.2975 31.4492C32.1087 28.3268 33.3269 26.8679 34.952 27.0726C41.5513 25.3349 47.0165 25.1765 51.3475 26.5974C54.3969 26.9008 58.4774 30.2055 63.589 36.5115C69.0901 44.3072 70.2117 51.4824 66.9537 58.037C64.6902 62.0021 61.2756 65.616 56.71 68.8784C52.2916 72.26 47.0167 75.5284 40.8853 78.6837L64.3273 78.6836C71.7149 74.6544 78.4981 68.7388 84.6769 60.9369C90.5133 51.8798 93.1964 42.9354 92.7262 34.1037C92.616 25.6212 88.5548 17.35 80.5426 9.29002C76.879 5.84671 72.9803 3.35985 68.8465 1.82944C67.8865 1.14795 64.6539 0.538135 59.1486 0Z" fill="black" fill-opacity="0.505882"/>
<path d="M69.666 78.3234L69.348 78.4615C67.7318 78.7453 63.3224 78.968 56.1201 79.1294C49.4606 79.2857 41.1536 79.355 31.1992 79.3371C22.1108 79.3013 14.7155 79.1911 9.01314 79.0063C7.85439 78.9712 6.68345 78.9252 5.50031 78.8686C4.74822 78.8434 3.47337 78.7651 1.67576 78.6337C0.466673 78.528 -0.0881329 78.4206 0.0113431 78.3113C0.334801 78.0281 3.74187 77.793 10.2326 77.606C16.9646 77.4095 25.1662 77.3092 34.8374 77.3052C38.3168 77.3039 42.3746 77.3254 47.0107 77.3695C51.1775 77.4238 53.5397 77.4579 54.0975 77.4719C56.1285 77.5145 57.9176 77.5583 59.4649 77.6034C65.9322 77.789 69.3325 78.029 69.666 78.3234Z" fill="black" fill-opacity="0.572549"/>
<path d="M32.7182 46.0302L32.3944 45.9785C31.4223 45.8277 30.6855 45.6148 30.1842 45.3397C29.5736 45.0433 29.0102 44.5353 28.4941 43.816C28.3256 43.5748 28.171 43.3141 28.0302 43.034L27.8337 42.6025C27.711 42.3063 27.6107 41.9974 27.5327 41.6759C27.3854 40.8569 27.3329 40.3576 27.3753 40.1781C27.3856 39.8358 27.4325 39.4924 27.5159 39.1477C27.6924 38.4515 28.0031 37.7847 28.448 37.1471C28.5282 36.9669 28.912 36.5325 29.5992 35.8441C29.8889 35.5832 30.1947 35.3484 30.5166 35.1396C31.8272 34.2888 33.277 34.001 34.8659 34.2762C36.7725 34.5612 39.0304 35.5798 41.6397 37.3319L32.7182 46.0302Z" fill="black" fill-opacity="0.996078"/>
<path d="M31.2907 44.2063L31.234 44.3638C30.9057 45.2122 31.0181 45.7333 31.5712 45.9271C31.8129 46.0351 32.1126 46.125 32.4702 46.1968C33.9791 46.4646 34.7154 46.6066 34.6791 46.6228L36.505 47.1675C36.7406 47.221 36.9658 47.2406 37.1808 47.2264L38.7494 46.995L40.7477 46.9015C41.109 46.8676 41.4501 46.7885 41.7708 46.6642C42.1875 46.5376 42.6367 46.1348 43.1185 45.4557C43.4236 44.976 43.7063 44.4587 43.9666 43.9037L47.9737 37.6031L45.0053 37.8519L39.2514 36.5013C38.1807 35.4517 37.4081 35.0481 36.9336 35.2903C36.6616 35.4249 36.4671 35.6392 36.3503 35.9333C36.2543 36.2655 36.2453 36.4919 36.3232 36.6126C36.4811 36.9758 36.9376 37.3278 37.6928 37.6687C35.8693 37.9249 34.6825 38.1448 34.1323 38.3283C33.3551 38.5548 32.7948 38.8596 32.4515 39.2427C32.2072 39.4656 32.0062 39.8655 31.8485 40.4425C31.7629 40.6989 31.6742 41.5472 31.5824 42.9875C31.5448 43.3101 31.4476 43.7164 31.2907 44.2063Z" fill="#F0C4A9"/>
<path d="M43.1271 44.2202L42.5391 40.78L45.3319 40.1479L43.1271 44.2202Z" fill="#FF0023" fill-opacity="0.152941"/>
<path d="M46.0281 41.5377C45.2008 42.1502 44.3735 42.7626 43.5461 43.3751C43.8547 41.3653 44.1632 39.3555 44.4717 37.3457C45.4877 37.7364 46.5036 38.127 47.5195 38.5177L46.0281 41.5377Z" fill="black" fill-opacity="0.996078"/>
<path d="M21.4332 77.6585L11.508 78.5663L8.11621 77.6839C11.1641 76.1252 13.3709 75.027 14.7366 74.3895C16.1138 73.739 17.0169 73.3993 17.4459 73.3705C17.623 73.3645 17.7318 73.3887 17.7722 73.443C17.8329 73.4849 17.8614 73.5996 17.8578 73.787L21.4332 77.6585Z" fill="#F0C4A9"/>
<path d="M27.1186 54.3691L18.7913 60.1155C20.1176 61.1951 21.444 62.2746 22.7704 63.3542L27.1186 54.3691Z" fill="#00B2E6"/>
<path d="M58.3704 74.2278L58.7481 73.8147C60.7957 71.7268 61.8743 68.5529 61.9837 64.2932C62.0828 60.6481 61.9962 57.8755 61.7239 55.9755C61.3241 53.0317 61.0294 51.2981 60.8398 50.7745C60.5745 49.6623 60.2582 48.616 59.891 47.6357C58.7542 44.7549 57.2031 42.6147 55.2377 41.2149C53.9425 40.2556 52.5549 39.4617 51.0749 38.8333C50.7165 38.6555 49.595 38.2049 47.7105 37.4815L45.3853 36.9727L44.9799 39.8838L39.439 50.3967L58.3704 74.2278Z" fill="white"/>
<path d="M16.2805 73.5892L17.1739 73.7697C17.996 75.7711 18.8998 77.0475 19.8855 77.5988C20.2873 77.8674 20.7006 78.118 21.1253 78.3508C21.4465 78.4237 21.9393 78.1322 22.6036 77.4763C25.0999 74.7861 27.7439 71.1069 30.5356 66.4387C31.9083 64.0653 33.0836 61.0363 34.0616 57.3517C37.1431 65.2561 39.2978 70.3556 40.5258 72.6503C41.9976 75.5679 43.4815 77.3966 44.9774 78.1364C47.4314 79.3778 50.0455 79.423 52.8199 78.272C55.347 77.1229 57.9224 74.8596 60.5462 71.4821C61.0701 70.7727 61.2778 70.1605 61.1692 69.6455L53.1536 63.5695C48.0291 57.0352 44.0544 52.4833 41.2294 49.9137C38.5749 47.6292 36.6492 46.4656 35.4523 46.4229C34.3148 46.1403 33.0634 46.3644 31.6983 47.0953C30.3088 47.9316 28.9333 49.3476 27.5719 51.3433C24.8208 55.3177 21.057 62.733 16.2805 73.5892Z" fill="black" fill-opacity="0.996078"/>
<path d="M60.0982 63.5675L60.3201 63.9218C61.3518 65.4386 61.8402 66.8234 61.7853 68.0763C61.806 68.4836 61.6208 69.2204 61.2297 70.2867C60.9286 71.054 60.3671 72.1653 59.5451 73.6203L52.3721 64.3003L50.3245 58.6909L60.0982 63.5675Z" fill="white"/>
<path d="M50.4555 53.9645L37.4932 64.2053L20.4021 64.4416L22.758 59.5156L34.6391 57.6475C36.8705 54.1997 38.4765 51.6749 39.457 50.0731C40.4616 48.4495 41.8334 46.1363 43.5723 43.1333L50.4555 53.9645Z" fill="white"/>
<path d="M22.9488 62.6379L20.0306 63.3715L19.1866 67.3063L16.4361 65.2868C16.2329 64.2909 16.115 63.5303 16.0823 63.0049C16.0283 62.3691 16.0796 61.7701 16.2363 61.208C16.4009 60.6397 16.6975 60.1584 17.1261 59.7641C17.2694 59.6359 17.4279 59.5221 17.6017 59.4227L17.8741 59.2863C18.0634 59.2031 18.2684 59.138 18.489 59.0909C19.3328 58.8566 21.0377 59.0374 23.6038 59.6334L22.9488 62.6379Z" fill="#F0C4A9"/>
<path d="M23.7199 64.217L25.1851 65.3044L21.6396 68.8149C21.3519 68.6429 21.0737 68.4631 20.805 68.2757C20.0749 67.7531 19.6456 67.1891 19.5173 66.5836C19.4325 66.3483 19.3941 65.8725 19.4022 65.1562C19.4351 64.5212 19.5002 63.8601 19.5973 63.1729L22.191 62.6577L23.7199 64.217Z" fill="#F0C4A9"/>
<path d="M35.4406 41.8903C35.4095 41.5673 35.3918 41.3223 35.3874 41.1553C35.3853 41.0882 35.3848 41.0226 35.3857 40.9584L35.3885 40.8635C35.3913 40.8011 35.396 40.7406 35.4029 40.6821L35.4149 40.5962L35.4301 40.5131L35.448 40.4329C35.4609 40.3803 35.4753 40.3291 35.4912 40.2794C35.5302 40.1544 35.5964 39.9907 35.6898 39.7881L35.4406 41.8903Z" fill="black" fill-opacity="0.996078"/>
<path d="M36.1472 41.5984C36.2367 41.4071 36.2992 41.2582 36.3346 41.1517C36.3492 41.1092 36.3621 41.0666 36.3733 41.024L36.3885 40.9601L36.4007 40.8962L36.4094 40.8323L36.4145 40.7683L36.4161 40.7043L36.4146 40.6403C36.4126 40.5976 36.409 40.5549 36.4036 40.5122C36.3911 40.4054 36.3608 40.2558 36.3127 40.0635L36.1472 41.5984Z" fill="black" fill-opacity="0.996078"/>
<path d="M35.2377 43.7984C35.1373 44.107 35.0668 44.3423 35.0262 44.5044C35.0096 44.5694 34.9948 44.6334 34.9818 44.6962L34.964 44.7895C34.9531 44.8511 34.9446 44.9111 34.9386 44.9697L34.9317 45.0562L34.9285 45.1405L34.9286 45.2228C34.9297 45.2769 34.9327 45.33 34.9374 45.3819C34.9484 45.5124 34.9774 45.6866 35.0246 45.9045L35.2377 43.7984Z" fill="black" fill-opacity="0.996078"/>
<path d="M35.8643 44.2363C35.9101 44.4425 35.9388 44.6014 35.9503 44.7129C35.9552 44.7576 35.9586 44.802 35.9603 44.846L35.9613 44.9117L35.9592 44.9767L35.9539 45.041L35.9449 45.1045L35.9327 45.1674L35.9173 45.2296C35.9061 45.2708 35.8933 45.3117 35.8788 45.3522C35.8434 45.4538 35.7813 45.5932 35.6926 45.7706L35.8643 44.2363Z" fill="black" fill-opacity="0.996078"/>
<path d="M38.6882 44.4799L39.199 44.2394L39.7098 43.999C39.4507 43.7094 39.1916 43.4199 38.9325 43.1304C38.9749 43.3568 39.0172 43.5833 39.0596 43.8097C38.9358 44.0331 38.812 44.2565 38.6882 44.4799Z" fill="#FF0000" fill-opacity="0.180392"/>
<path d="M41.6895 43.5259L41.6898 43.601C41.6908 43.7844 41.6859 43.9381 41.6749 44.062C41.6624 44.1814 41.6527 44.2593 41.6458 44.2959C41.6323 44.3746 41.6129 44.4639 41.5876 44.5637C41.5247 44.8013 41.3896 45.1633 41.1824 45.6499L41.6895 43.5259Z" fill="#FF0000" fill-opacity="0.211765"/>
<path d="M31.1966 35.6386L31.3126 35.9941C31.4826 36.736 31.3834 37.4236 31.0149 38.057C30.6426 38.6915 30.0744 39.1159 29.3103 39.3304C28.5669 39.5001 27.878 39.4011 27.2434 39.0334C27.0395 38.9141 26.853 38.7697 26.6839 38.6004L26.4476 38.3294C26.3002 38.1369 26.1788 37.923 26.0834 37.6877C25.8108 36.9575 25.8185 36.2561 26.1063 35.5833C26.3941 34.9106 26.8965 34.42 27.6134 34.1115C28.345 33.8395 29.0478 33.8471 29.7219 34.1344C30.3959 34.4216 30.8875 34.923 31.1966 35.6386Z" fill="black" fill-opacity="0.996078"/>
</svg>
