<svg width="301" height="309" viewBox="0 0 301 309" fill="none" xmlns="http://www.w3.org/2000/svg">
<path d="M156.785 61.5076L157.217 61.5103C163.93 61.7534 169.265 64.0543 173.224 68.4128C177.477 73.2738 179.455 78.4556 179.158 83.9583C178.893 92.9373 174.34 99.6076 165.499 103.969L163.666 130.401C163.542 132.553 163.222 134.318 162.706 135.696C160.625 139.022 158.07 140.79 155.043 141C151.955 140.998 150.062 140.636 149.362 139.914C147.308 138.707 145.883 137.081 145.087 135.035C144.509 133.219 144.286 131.785 144.417 130.734C144.463 128.005 145.043 118.597 146.158 102.511C142.825 100.552 140.154 97.8492 138.145 94.4026C136.058 90.9528 135.118 87.2322 135.324 83.2409C135.373 77.1489 137.471 72.0664 141.619 67.9933C145.608 63.9404 150.663 61.7785 156.785 61.5076ZM144.984 0.0422474L143.931 0.0587269C120.922 -0.404986 98.8891 5.09351 77.8314 16.5542C60.0693 27.3043 47.2556 41.3473 39.3903 58.6831C31.1588 79.6214 29.7747 94.5689 35.2378 103.526L8.44239 144.318C4.42597 151.118 2.43589 155.936 2.47214 158.775C2.23649 161.314 3.77983 163.615 7.10221 165.68C11.809 168.541 17.1507 170.135 23.1272 170.46C24.2768 170.893 25.0862 171.697 25.5554 172.872C26.0521 173.098 25.5904 176.381 24.1702 182.723C20.9645 188.242 19.6858 191.091 20.3342 191.27C19.6804 193.17 22.1801 195.927 27.8334 199.541C28.5206 199.629 27.1188 201.992 23.6281 206.63C23.2735 207.236 23.1364 207.915 23.2169 208.668C29.3566 215.184 32.2657 219.396 31.9445 221.304L28.4471 239.281C27.9718 241.702 28.1017 244.197 28.8367 246.766C32.6213 254.686 39.6764 259.409 50.0018 260.936L92.1366 257.986C94.6268 260.365 96.9333 264.287 99.0563 269.752L101.125 275.798L98.6768 276.63C102.327 283.469 104.028 287.628 103.78 289.108C103.983 289.504 103.608 290.604 102.655 292.409C97.1037 298.792 93.0574 303.916 90.516 307.781L264.264 307.783C261.013 304.692 258.716 301.727 257.375 298.89C256.24 297.695 255.292 292.677 254.531 283.837C254.019 281.443 253.298 279.023 252.365 276.576L239.099 252.645C234.414 233.558 231.568 217.909 230.562 205.698C230.078 201.589 230.971 196.293 233.242 189.812C234.302 186.922 235.771 183.649 237.649 179.993C247.793 162.528 252.956 153.087 253.14 151.671C255.485 145.596 257.603 137.751 259.496 128.137C263.591 104.327 262.109 83.3323 255.051 65.1514C245.923 43.7015 233.239 28.2545 216.998 18.8103C194.244 5.67581 170.24 -0.580219 144.984 0.0422474Z" fill="#88AB8E"/>
<path d="M217.478 74.8363C216.008 95.8796 216.338 114.753 218.469 131.456C218.513 131.799 218.534 132.145 218.533 132.491C218.517 136.762 217.887 141.004 216.643 145.215C216.543 145.554 216.421 145.885 216.277 146.207C207.275 166.352 195.39 180.409 180.623 188.374L181.456 187.856C168.058 197.388 153.56 200.485 137.963 197.148L138.284 197.21C126.764 195.237 116.117 187.453 106.345 173.859L106.683 174.297C99.6392 165.812 96.1527 148.033 96.2232 120.961C96.2234 120.913 96.224 120.863 96.2248 120.815C96.4754 108.891 101.077 92.3206 110.031 71.1017C110.189 70.7264 110.376 70.3636 110.59 70.0166C128.017 41.791 152.418 25.4666 183.793 21.0424C183.861 21.033 183.929 21.0245 183.996 21.0165C211.226 17.8906 231.625 28.4087 245.193 52.5695C247.342 56.3948 245.982 61.2377 242.156 63.3859C238.33 65.5341 233.488 64.1745 231.339 60.3489C221.219 42.3279 206.042 34.4794 185.808 36.8017L186.012 36.7755C159.559 40.5056 138.925 54.3684 124.11 78.364L124.67 77.2788C116.505 96.6293 112.318 111.252 112.11 121.148L112.112 121.002C112.052 144.235 114.317 158.617 118.908 164.148C119.026 164.289 119.139 164.435 119.246 164.585C126.485 174.654 133.725 180.309 140.967 181.549C141.073 181.568 141.181 181.588 141.287 181.611C152.326 183.972 162.646 181.739 172.246 174.909C172.513 174.719 172.791 174.546 173.079 174.39C184.675 168.135 194.239 156.58 201.771 139.724L201.405 140.716C202.22 137.953 202.633 135.192 202.644 132.431L202.708 133.466C200.445 115.727 200.085 95.815 201.628 73.7293C201.933 69.3523 205.729 66.052 210.106 66.3576C214.483 66.6635 217.783 70.4593 217.478 74.8363Z" fill="#88AB8E"/>
<path d="M198.275 34.5676C197.714 37.7159 197.636 42.0888 198.039 47.6863L203.013 87.5173C203.005 103.387 202.717 111.634 202.15 112.259C201.963 117.289 198.611 125.966 192.095 138.291C189.621 142.871 185.347 148.143 179.272 154.108C165.404 167.615 152.301 169.871 139.963 160.878C123.366 148.007 115.529 131.285 116.454 110.714C116.466 100.082 119.023 88.2041 124.126 75.0807C131.253 59.0116 138.979 47.2372 147.302 39.7573C158.803 30.5903 167.172 26.2555 172.41 26.7529C179.804 26.3313 188.419 29.2827 198.255 35.6072L198.275 34.5676Z" fill="#88AB8E"/>
<path d="M143.338 67.5916L143.33 67.5925C139.433 68.0598 136.306 69.685 133.951 72.4681C131.495 75.2718 130.398 78.6221 130.66 82.5178C130.721 85.0794 131.502 87.4138 133.003 89.5197C134.436 91.6012 136.248 93.1873 138.439 94.278L138.433 94.2786C138.493 104.457 138.573 110.41 138.675 112.135C138.644 112.826 138.857 113.738 139.313 114.871L139.317 114.878C139.932 116.165 140.933 117.148 142.319 117.829L142.313 117.829C142.836 118.263 144.078 118.407 146.041 118.26L146.051 118.259C148.004 117.975 149.572 116.71 150.753 114.463L150.763 114.436C151.028 113.526 151.149 112.381 151.125 111L151.027 94.2724L151.021 94.2728C156.411 91.0663 158.977 86.5995 158.717 80.8725C158.642 77.337 157.129 74.1198 154.179 71.2193L154.177 71.2175C151.436 68.6204 147.915 67.4055 143.616 67.5728L143.612 67.5731L143.338 67.5916Z" fill="#27405A"/>
<path d="M300.018 307.235L298.648 307.388C292.158 307.696 273.167 307.943 241.675 308.127C209.965 308.312 172.625 308.387 129.654 308.352C88.6432 308.303 55.8441 308.16 31.2563 307.924C23.378 307.847 16.8887 307.763 11.7885 307.673L5.35858 307.534C1.82593 307.438 0.0397333 307.339 0 307.235C1.07248 306.915 15.718 306.65 43.9366 306.438C72.1552 306.226 107.513 306.116 150.009 306.108C192.505 306.116 227.862 306.227 256.081 306.439C284.3 306.65 298.945 306.916 300.018 307.235Z" fill="black"/>
<path d="M106.512 84.0494L106.21 87.7421L76.5699 87.5425L72.8394 87.5183L73.3821 83.8262L77.1125 83.8513L106.512 84.0494Z" fill="black"/>
<path d="M106.512 84.0498L110.217 84.0747L110.217 84.0759L109.915 87.7672L106.21 87.7424L106.512 84.0498Z" fill="black"/>
<path d="M69.6975 108.883L73.4279 108.909L72.8856 112.6L69.1553 112.575L69.6975 108.883Z" fill="black"/>
<path d="M104.462 109.117L108.167 109.142L107.865 112.835L104.161 112.811L104.462 109.117Z" fill="black"/>
<path d="M104.462 109.116L104.16 112.81L72.8857 112.599L73.428 108.909L104.462 109.116Z" fill="black"/>
<path d="M66.014 133.94L65.7426 135.786L65.4712 137.63L66.014 133.94Z" fill="black"/>
<path d="M102.413 134.185L102.111 137.878L69.2015 137.656L65.4712 137.631L66.014 133.94L69.7444 133.965L102.413 134.185Z" fill="black"/>
<path d="M102.413 134.185L106.118 134.21L105.816 137.902L102.111 137.878L102.413 134.185Z" fill="black"/>
<path d="M62.3218 159.052L62.0588 160.842L61.8179 162.482L62.3218 159.052Z" fill="black"/>
<path d="M100.363 159.252L100.061 162.945L65.5179 162.713L61.7876 162.688L62.3299 158.997L66.0607 159.021L100.363 159.252Z" fill="black"/>
<path d="M58.646 184.054L58.3746 185.899L58.1514 187.417L58.646 184.054Z" fill="black"/>
<path d="M98.3134 184.32L98.0113 188.013L61.8337 187.769L58.103 187.745L58.6458 184.054L62.3765 184.079L98.3134 184.32Z" fill="black"/>
<path d="M54.9616 209.11L54.6903 210.956L54.4883 212.33L54.9616 209.11Z" fill="black"/>
<path d="M58.6925 209.135L58.1501 212.827L54.4194 212.802L54.9619 209.111L58.6925 209.135Z" fill="black"/>
<path d="M51.261 234.282L51.0068 236.013L50.8257 237.244L51.261 234.282Z" fill="black"/>
<path d="M94.2144 234.456L93.9124 238.148L54.4661 237.883L50.7354 237.858L51.2781 234.167L55.009 234.193L94.2144 234.456Z" fill="black"/>
<path d="M97.919 234.481L97.6169 238.173L93.9121 238.149L94.2141 234.456L97.919 234.481Z" fill="black"/>
<path d="M92.1646 259.524L92.1468 259.741L91.8625 263.216L50.782 262.94L47.0513 262.916L47.4254 260.371L47.5938 259.225L51.3242 259.251L92.1646 259.524Z" fill="black"/>
<path d="M92.1644 259.524L95.869 259.549L95.5672 263.241L91.8623 263.217L92.1644 259.524Z" fill="black"/>
<path d="M90.1146 284.591L89.8127 288.284L47.0977 287.997L43.7155 287.976C43.6 287.974 43.4866 287.962 43.377 287.941L43.9096 284.282L47.6404 284.307L90.1146 284.591Z" fill="black"/>
<path d="M90.115 284.592L93.8197 284.618L93.5181 288.309L89.813 288.285L90.115 284.592Z" fill="black"/>
<path d="M43.9101 284.282L43.9007 284.347L43.3721 287.94L43.9101 284.282Z" fill="black"/>
<path d="M75.7707 67.6994L75.7903 67.4438L40.9535 304.389C40.8052 305.398 41.5031 306.337 42.5126 306.486C43.5219 306.634 44.4605 305.936 44.6088 304.926L79.4455 67.9815C79.4582 67.8968 79.4645 67.8113 79.4651 67.7253C79.4719 66.7052 78.6509 65.8723 77.6306 65.8653C76.6104 65.8588 75.7776 66.68 75.7707 67.6994Z" fill="black"/>
<path d="M101.824 98.4478C101.834 98.4546 101.844 98.4614 101.854 98.4683L101.852 98.4817C102.425 99.5542 102.779 100.359 102.912 100.895C102.913 100.901 102.915 100.907 102.917 100.913C102.929 101.002 102.938 101.092 102.944 101.181C102.974 101.346 103.01 101.476 103.051 101.573C103.063 101.652 103.072 101.733 103.081 101.813L103.158 103.198C103.141 103.22 103.124 103.243 103.107 103.266C103.105 103.551 103.117 103.831 103.145 104.107C103.163 104.348 103.235 104.766 103.361 105.361C103.38 105.479 103.38 105.57 103.363 105.634C103.354 105.687 103.312 105.744 103.238 105.805C102.884 105.994 102.693 106.111 102.667 106.158C102.577 106.242 102.51 106.344 102.466 106.465C102.429 106.561 102.406 106.698 102.395 106.876C102.408 107.864 102.394 108.422 102.354 108.55C102.304 108.919 102.194 109.225 102.024 109.468C101.872 109.687 101.645 109.899 101.344 110.104L99.5583 111.14C99.3625 111.298 99.2399 111.465 99.1905 111.642C99.1382 111.683 99.0866 111.726 99.0359 111.769C98.9554 111.839 98.8739 111.917 98.7914 112.004L98.2578 114.363C97.312 115.24 96.5938 116.069 96.1031 116.851C96.3727 117.044 96.6521 117.353 96.9409 117.778C96.049 117.67 95.2842 117.373 94.6465 116.886C94.0111 116.373 93.8031 115.751 94.0224 115.022C94.1495 114.564 94.4232 114.038 94.8437 113.442C95.1598 112.973 95.8252 112.162 96.8401 111.008L101.824 98.4478Z" fill="#962C07" fill-opacity="0.0509804"/>
<path d="M104.068 159.277L103.766 162.97L100.062 162.946L100.363 159.252L104.068 159.277Z" fill="black"/>
<path d="M102.019 184.345L101.717 188.038L98.0117 188.013L98.3138 184.32L102.019 184.345Z" fill="black"/>
<path d="M99.9683 209.412L99.6667 213.106L95.9619 213.081L96.2635 209.388L99.9683 209.412Z" fill="black"/>
<path d="M96.2636 209.388L95.9619 213.08L58.1499 212.826L58.6924 209.135L96.2636 209.388Z" fill="black"/>
<path d="M107.97 66.4409L107.97 66.4422L107.973 66.1846L88.456 304.879C88.3727 305.896 89.1298 306.787 90.1467 306.871C91.1636 306.954 92.0549 306.196 92.1382 305.179V305.18L111.655 66.4853C111.662 66.4003 111.663 66.3147 111.658 66.2287C111.599 65.2099 110.726 64.4312 109.707 64.4899C108.689 64.5488 107.911 65.4225 107.97 66.4409Z" fill="black"/>
<path d="M72.2222 200.137L76.862 206.099C77.4588 206.685 78.0372 207.145 78.597 207.479C78.7699 207.625 79.6823 208.07 81.334 208.816C81.6603 208.984 81.911 209.137 82.0862 209.276C82.5633 209.634 82.6126 209.989 82.2342 210.341C81.6798 210.799 80.8544 211.064 79.7581 211.137C78.7402 211.189 77.7451 211.021 76.7729 210.633C75.151 210.057 72.6829 208.263 69.3687 205.249C69.9935 203.606 70.4855 202.468 70.8448 201.833C71.1865 201.205 71.646 200.64 72.2222 200.137Z" fill="black"/>
<path d="M84.3818 206.859L88.9195 208.25L91.0206 208.566C92.161 208.386 92.9646 208.287 93.4314 208.267C94.0233 208.235 94.4913 208.264 94.8354 208.353C95.6805 208.622 95.9783 209.08 95.7289 209.726C95.4282 210.432 94.0884 210.952 91.7093 211.288C90.2492 211.493 88.7264 211.612 87.1408 211.646C86.0055 211.67 84.9836 211.589 84.075 211.402C83.6118 210.575 83.4064 209.883 83.4586 209.327C83.4749 208.809 83.7828 207.986 84.3818 206.859Z" fill="black"/>
<path d="M89.1807 203.212C89.5407 204.946 89.9689 206.131 90.4654 206.769C90.6794 207.068 90.9458 207.335 91.2647 207.57C91.4371 207.698 91.6293 207.824 91.8412 207.947L93.0199 208.596C93.1908 208.706 93.281 208.798 93.2905 208.873C93.3145 209.036 93.0675 209.187 92.5496 209.327C92.0244 209.462 91.3808 209.543 90.6189 209.568C89.1546 209.606 87.714 209.416 86.2971 208.998C85.0366 208.607 84.3583 208.142 84.262 207.604C84.2183 207.4 84.2337 207.175 84.3083 206.927C84.3171 206.823 84.5239 206.355 84.9285 205.521C84.9968 205.36 85.0614 205.188 85.1222 205.007C85.2868 204.516 85.4156 203.955 85.5086 203.325L89.1785 203.212" fill="#FFCD91"/>
<path d="M74.7384 196.32L79.2696 197.998C77.754 200.716 77.0129 202.65 77.0462 203.802C77.0325 204.373 77.156 204.934 77.4167 205.487C77.5475 205.77 77.7173 206.065 77.9263 206.372L78.9746 207.77C79.0811 207.94 79.1089 208.064 79.0581 208.14C78.8797 208.329 78.4171 208.258 77.6704 207.926C76.9746 207.6 76.262 207.127 75.5327 206.505C74.676 205.775 73.8319 204.924 73.0006 203.952C72.1779 202.978 71.6722 202.24 71.4836 201.738C71.3559 201.4 71.3694 201.113 71.524 200.877L71.7118 200.628C72.0956 200.226 72.3253 199.976 72.4009 199.876C72.5654 199.676 72.7384 199.448 72.92 199.19C73.3107 198.645 73.9148 197.692 74.7321 196.331" fill="#FFCD91"/>
<path d="M95.8689 95.7214C97.2164 95.7471 99.2116 96.6626 101.854 98.468L98.2578 114.363C96.8584 115.66 95.9573 116.854 95.5543 117.945C95.3581 118.418 95.1962 118.988 95.0688 119.658C94.607 123.231 94.2784 125.224 94.0829 125.635C93.7688 126.767 93.1632 127.992 92.266 129.308L87.635 135.856C87.0424 136.659 86.5525 137.231 86.1655 137.57C85.5124 138.38 84.1042 138.688 81.941 138.494C79.7609 138.445 78.763 137.359 78.9473 135.237C79.0045 134.812 79.1344 134.406 79.3372 134.018L80.8768 132.046C81.1072 131.676 81.3178 131.125 81.5085 130.394C81.6919 129.643 81.7909 128.997 81.8055 128.454C81.8071 128.25 81.7947 128.114 81.7682 128.043C81.6417 127.823 81.577 127.65 81.5742 127.525C81.556 127.415 81.5597 127.198 81.5853 126.874C81.6443 126.248 81.7968 125.325 82.0428 124.102C84.0766 114.666 85.6413 108.022 86.737 104.168C87.2216 102.466 88.1548 101.016 89.5367 99.8182C92.3117 97.3883 93.6532 96.2634 93.5612 96.4434C94.3128 95.942 95.0815 95.7013 95.8674 95.7214" fill="black"/>
<path d="M81.9212 144.597L89.994 146.966L93.6267 145.743L97.1616 146.894L97.7709 145.852L98.8037 148.727C99.0165 146.884 99.2388 146.607 99.4819 147.896C99.653 148.803 99.7341 149.558 99.6801 150.16C99.6381 150.629 99.3343 150.161 98.801 148.759C98.7194 149.953 98.7479 150.788 98.9228 151.249C99.0132 151.486 99.1559 151.592 99.3158 151.579L100.239 151.32L99.3031 157.2C98.3579 164.474 97.7612 168.807 97.5474 170.2C97.1462 172.812 96.7527 175.26 96.3507 177.537C95.3614 183.144 93.5018 192.082 90.7521 204.344L84.527 203.62L86.1434 186.51L78.6318 201.654L73.9727 196.305C81.1529 182.55 83.7784 178.17 85.0103 177.175C84.2536 176.259 85.3155 173.978 84.7394 172.253C84.4879 171.5 83.3631 167.578 81.5089 160.435L80.9659 158.754L79.8622 155.962C79.6221 155.209 79.4914 154.524 79.3725 153.922C78.8875 151.47 79.6933 148.39 81.8835 144.663L81.9212 144.597Z" fill="#395969"/>
<path d="M82.8304 138.28L89.8804 138.578C88.7983 140.047 88.1531 141.095 87.9449 141.721C87.6537 142.488 87.6764 143.113 88.0129 143.597C88.3303 144.073 89.041 144.508 90.1448 144.9C91.0516 145.236 92.6999 145.637 95.0896 146.103C93.8402 146.881 92.813 147.393 92.0081 147.641C91.1299 147.924 90.237 148.029 89.3294 147.955C87.746 147.892 84.9572 146.888 80.9629 144.941L82.8285 138.286" fill="#FC2656"/>
<path d="M95.405 116.613C96.1639 116.57 97.0095 117.576 97.9415 119.628C99.2258 122.629 99.9598 125.077 100.144 126.971C100.209 127.802 100.091 128.478 99.7881 128.998C99.6918 129.168 99.5427 129.338 99.3411 129.509C98.1833 130.242 97.5289 130.735 97.3778 130.99C97.0046 131.421 96.7602 131.983 96.6447 132.674C96.5314 133.302 96.5479 134.177 96.6942 135.297C96.705 135.623 97.0417 137.528 97.7044 141.012C97.8265 141.756 97.8989 142.335 97.9216 142.751C97.9992 143.844 97.8014 144.385 97.3284 144.373C96.9968 144.372 96.5107 144.155 95.8702 143.722L92.4221 141.122L91.1288 140.236C90.4012 139.784 89.7813 139.497 89.2693 139.376C88.6512 139.217 88.0271 139.235 87.397 139.431C87.034 139.479 86.1502 140.002 84.7456 140.998C84.4543 141.142 84.2043 141.167 83.9957 141.071C83.2973 140.69 82.8604 139.695 82.685 138.087C82.6139 137.13 82.7717 136.364 83.1586 135.788C83.3264 135.41 84.0358 134.815 85.2867 134.004C85.4389 133.862 85.5527 133.708 85.6281 133.54C85.6788 133.437 85.7223 133.289 85.7585 133.097C85.8349 132.152 85.9429 131.469 86.0827 131.047C86.282 130.356 86.5406 129.773 86.8585 129.299C87.0954 128.953 87.3479 128.731 87.6158 128.635C87.7059 128.563 88.1229 128.509 88.867 128.472C88.983 128.454 89.0968 128.416 89.2084 128.357C89.4018 128.251 89.5772 128.046 89.7346 127.742C89.8988 127.431 90.0679 126.954 90.2417 126.31L91.5313 121.18C91.8894 120.524 92.1755 120.016 92.3896 119.654C93.6299 117.561 94.6239 116.547 95.3717 116.613" fill="#FC2656"/>
<path d="M93.927 122.725L91.3808 134.646L91.3041 139.876L88.3164 138.449C88.8719 137.404 89.3041 136.441 89.6132 135.558C89.7344 135.221 89.8664 134.819 90.009 134.352L91.1049 130.613C91.3187 129.902 91.5282 129.243 91.7332 128.636C92.174 127.309 92.9028 125.346 93.9195 122.745" fill="#5B3B30" fill-opacity="0.0941176"/>
<path d="M82.6473 139.389C83.8355 141.195 84.9559 142.508 86.0086 143.326C86.5282 143.731 87.1255 144.097 87.8004 144.422C88.3199 144.683 89.2044 145.033 90.4538 145.474C89.9865 146.153 89.5632 146.593 89.1837 146.794C88.75 147.038 88.2521 147.121 87.6898 147.043C86.7019 146.958 84.6727 146.052 81.6021 144.323L82.647 139.391" fill="#5B3B30" fill-opacity="0.133333"/>
<path d="M86.2504 156.738L88.6768 176.562C88.1166 189.086 87.562 196.939 87.0131 200.123C86.6295 202.68 86.1064 203.989 85.4437 204.051C85.4216 204.057 85.3991 204.062 85.3762 204.064C85.4 203.954 85.4222 203.841 85.4427 203.726L84.5957 203.627L84.5953 203.628C84.5746 203.607 84.5536 203.584 84.5325 203.561L86.1434 186.51L86.0289 192.915C86.1293 189.052 86.206 186.63 86.259 185.65C86.1768 181.818 86.2439 178.739 86.4602 176.413C86.4726 176.28 86.4844 176.15 86.4956 176.021C86.5093 175.867 86.522 175.716 86.5338 175.567C86.7531 172.867 86.7834 170.469 86.6246 168.374C86.5115 166.535 86.1386 164.237 85.5059 161.481L86.2475 156.756L86.2504 156.738Z" fill="#887F7C" fill-opacity="0.388235"/>
<path d="M119.053 90.8066C119.502 90.8424 119.612 91.0697 119.382 91.4885C119.288 91.6391 119.152 91.8054 118.975 91.9874L117.35 93.61C117.071 93.9256 116.908 94.1963 116.861 94.4221C116.824 94.5924 116.878 94.7657 117.024 94.942L118.146 95.8054C118.274 95.915 118.36 96.0554 118.404 96.2264C118.482 96.5923 118.187 97.1436 117.518 97.8804C117.241 98.1913 116.786 98.65 116.154 99.2566C115.283 99.1847 114.705 99.1201 114.419 99.0629C114.326 99.0575 114.242 99.0892 114.166 99.1581L108.671 104.988C107.386 106.288 106.257 107.347 105.282 108.163C104.477 108.838 103.733 109.368 103.049 109.755C102.67 110.009 101.628 110.486 99.9228 111.184C99.6038 111.339 99.3083 111.534 99.0362 111.769C98.6836 112.073 98.3117 112.545 97.9206 113.186L96.1757 116.479C96.0072 116.751 95.8379 116.892 95.6677 116.902C95.4141 116.924 95.1606 116.436 94.9072 115.441L96.4149 112.974C97.0234 112.422 97.5179 111.845 97.8983 111.244C98.2829 110.648 98.6184 109.998 98.9048 109.293C99.137 108.739 99.3775 108.003 99.6263 107.085C100.522 103.445 101.262 100.573 101.844 98.4675C102.422 99.5473 102.778 100.356 102.912 100.894C102.993 101.197 103.049 101.503 103.081 101.813L103.162 103.267C107.558 100.405 110.769 98.4418 112.794 97.3778C112.953 97.2598 113.084 97.1114 113.185 96.9326L113.668 95.6357C113.764 95.428 113.91 95.2231 114.103 95.021L115.743 93.5188C116.956 92.135 117.612 91.4287 117.709 91.4C118.133 91.0236 118.578 90.8258 119.044 90.8068" fill="#FEB99A"/>
<path d="M90.3879 146.574C91.8732 142.508 95.1431 139.215 99.2835 137.62C100.573 137.124 101.511 136.888 103.288 136.62C104.261 136.466 106.101 136.493 107.604 136.678C108.303 136.763 109.846 137.138 110.657 137.418C114.157 138.64 116.944 140.761 119.002 143.762C120.442 145.863 121.409 148.535 121.603 150.95C121.641 151.411 121.675 151.858 121.682 151.938C121.698 152.086 121.758 152.103 152.563 160.59L183.426 169.101L183.672 169.326C183.954 169.597 184.143 170.057 184.146 170.487C184.149 170.71 183.946 171.499 183.44 173.286C182.756 175.689 182.724 175.78 182.512 176.001C182.078 176.46 181.601 176.58 180.857 176.424L180.329 176.315L179.15 180.592L177.969 184.877L175.474 184.191L172.979 183.503L173.511 181.573L174.042 179.644L172.622 179.266L171.206 178.897L170.851 180.11L170.503 181.317L168.741 180.831L166.978 180.346L167.967 176.753L168.957 173.16L144.363 166.398L119.766 159.644L119.415 160.189C116.575 164.705 111.513 167.434 106 167.44C103.889 167.438 101.552 166.98 99.6138 166.195C94.5609 164.138 90.8828 159.796 89.8004 154.629C89.4052 152.738 89.4038 150.769 89.7884 148.749C89.9689 147.782 90.0273 147.569 90.3879 146.574ZM95.8506 151.014C95.6632 154.37 97.2161 157.567 99.9954 159.535C104.028 162.386 109.584 161.991 112.976 158.617C116.099 155.518 116.595 150.68 114.172 146.977C112.778 144.84 110.799 143.399 108.332 142.712C105.677 141.981 103.002 142.282 100.691 143.577C99.6661 144.155 99.0676 144.612 98.3875 145.341C97.5846 146.201 97.0899 146.931 96.6118 147.966C96.3114 148.614 95.8932 150.288 95.8506 151.014Z" fill="#27405A"/>
<path d="M88.8859 138.722C94.1414 141.215 97.651 143.427 99.4148 145.36C101.128 147.262 101.488 149.285 100.497 151.428C99.7148 152.816 98.9158 153.329 98.1004 152.97C97.7426 152.756 97.5088 152.41 97.3993 151.931C97.3526 151.711 97.3474 151.492 97.3838 151.272C97.3679 151.23 97.4907 150.803 97.752 149.99C97.7958 149.799 97.8111 149.626 97.798 149.469C97.7711 149.087 97.552 148.734 97.1407 148.409C96.7294 148.075 96.0373 147.691 95.0646 147.257C95.1027 147.236 93.2549 146.499 89.5214 145.046C88.6272 144.673 87.5867 144.197 86.3999 143.618L88.8781 138.738" fill="#FEB99A"/>
</svg>
