<svg width="132" height="132" viewBox="0 0 132 132" fill="none" xmlns="http://www.w3.org/2000/svg">
<path d="M62.9181 0.0530784C44.7685 1.19512 29.5384 8.34164 17.2279 21.4926C5.1533 35.1787 -0.57421 51.0199 0.0453593 69.0163C1.18617 87.1631 8.28748 102.371 21.3493 114.64C35.1032 126.797 50.946 132.569 68.8774 131.956C87.0333 130.87 102.288 123.767 114.643 110.647C126.76 96.9889 132.533 81.1608 131.961 63.1627C130.937 45.077 123.812 29.79 110.586 17.3016C96.8133 5.16088 80.9614 -0.590399 63.0305 0.0478103" fill="#41908D"/>
<path d="M65.7015 0C64.8163 0 63.926 0.0159392 63.0305 0.0478086L62.9181 0.0530766C44.7685 1.19512 29.5384 8.34164 17.2279 21.4926C5.1533 35.1787 -0.57421 51.0199 0.0453593 69.0163C1.18617 87.1631 8.28748 102.371 21.3493 114.64C24.6577 117.564 28.0869 120.119 31.637 122.304C42.1376 128.768 53.6955 132 66.3107 132C66.9057 132 67.503 131.993 68.1026 131.978H68.1041L68.1041 27.6155V27.3694V27.3224H68.1056C68.1051 27.322 68.1046 27.3217 68.1041 27.3213L68.1041 26.0787H68.1056C68.1051 26.0784 68.1046 26.0781 68.1041 26.0778L68.1041 0.039601H68.1056C67.3085 0.0132044 66.5071 0 65.7015 0Z" fill="black" fill-opacity="0.0313726"/>
<path d="M33.9895 45.6314L32.1381 55.4164C32.106 55.4144 32.0738 55.4124 32.0415 55.4105C32.5028 53.7076 33.053 50.5862 33.6923 46.0465C33.7952 45.902 33.8943 45.7636 33.9895 45.6314ZM41.4831 36.3838C41.2335 36.3365 40.9688 36.4386 40.6889 36.6901C40.5948 36.7794 40.5108 36.8764 40.4369 36.9812C40.1277 37.5453 39.9081 37.8846 39.7782 37.9993L36.0759 41.79C36.0748 41.7892 36.0737 41.7888 36.0724 41.7886C35.9941 41.7737 35.5176 42.6413 34.6429 44.3913L33.746 45.613L33.7072 44.882C33.5342 44.6396 33.7158 45.5324 34.2522 47.5605C33.7377 46.049 33.4079 44.9221 33.2627 44.1796C32.8211 49.8705 32.3415 53.6716 31.8237 55.5829C34.9055 55.8051 36.6466 55.8442 37.047 55.7002C37.6885 55.6033 38.5512 55.4378 39.635 55.2036C42.193 54.4823 43.6974 54.0941 44.1481 54.039C45.0207 53.8595 46.5298 53.6687 48.6753 53.4663C48.9303 53.4224 49.1071 53.2835 49.2056 53.0497C49.4818 52.4723 49.4504 52.01 49.1113 51.663C49.639 51.5832 49.9183 51.3171 49.9494 50.8648C49.9992 50.216 49.9243 49.734 49.7249 49.4189C50.2954 48.8073 50.5876 48.32 50.6015 47.9568C50.6638 47.5342 50.5608 47.1633 50.2925 46.8439C50.7062 46.2223 50.7561 45.6087 50.4422 45.0031C50.2317 44.5092 49.8963 44.1921 49.436 44.0517L41.317 42.0919L40.2347 42.3623C40.3265 41.9467 40.4073 41.6764 40.4769 41.5513C41.2911 40.6408 41.8212 39.7137 42.0673 38.7701C42.3607 37.6516 42.2682 36.9025 41.7898 36.5227L41.7774 36.5137C41.6818 36.4461 41.5837 36.4028 41.4831 36.3838Z" fill="#FFCCA4"/>
<path d="M34.2818 43.2266L30.1296 43.3137L29.4331 56.6303L33.1084 57.2024L34.2797 43.2515" fill="white"/>
<path d="M31.359 42.2002L4.2745 42.5647H4.27533C2.19158 48.0185 0.869494 53.7309 0.309082 59.702L30.1252 59.5042L31.3588 42.2028L31.359 42.2002Z" fill="black"/>
<path d="M78.3027 34.7978C78.3474 35.0464 78.2833 35.2334 78.1105 35.3588C77.8743 35.493 77.6696 35.4944 77.4961 35.3632C72.3396 30.3817 68.4508 27.2483 65.8299 25.9629C63.2465 24.6002 60.8664 24.1048 58.6896 24.4767C56.4587 24.8523 54.0516 26.1339 51.4682 28.3214C48.8116 30.4609 44.8494 34.8475 39.5817 41.4813C39.1989 41.7142 38.9148 41.6375 38.7293 41.2513C38.68 41.0828 38.7091 40.9245 38.8166 40.7765C41.1406 37.8821 42.9245 35.7168 44.1684 34.2807C46.2672 31.8401 48.1712 29.8541 49.8805 28.3228C53.0422 25.4774 55.9378 23.8496 58.5674 23.4392C61.1594 23.0107 63.9905 23.682 67.0607 25.4533C69.8711 27.0196 73.615 30.1234 78.2922 34.7647" fill="#FFE79E"/>
<path d="M85.542 61.8782C85.4824 61.6193 85.3432 61.4651 85.1244 61.4154C84.8407 61.3833 84.6422 61.4665 84.5288 61.6649C81.604 68.6103 79.1406 73.2457 77.1388 75.571C75.2052 77.9558 73.1097 79.4182 70.8521 79.9583C68.5408 80.5171 65.6847 80.2732 62.2838 79.2265C58.832 78.2567 53.1895 75.6544 45.3566 71.4198C44.8904 71.3529 44.6476 71.5444 44.6279 71.9943C44.6499 72.1775 44.7434 72.3184 44.9085 72.4172C48.3508 74.2541 50.9699 75.6096 52.7656 76.4835C55.8028 77.9751 58.4638 79.1077 60.7487 79.8814C64.9804 81.3247 68.4518 81.7015 71.1628 81.0115C73.8451 80.3545 76.3038 78.5357 78.539 75.555C80.6079 72.8799 82.9434 68.333 85.5455 61.9144" fill="#FFE79E"/>
<path d="M76.0373 50.9078C76.5016 54.8711 75.5652 58.433 73.2279 61.5934C70.8212 64.7069 67.6329 66.5785 63.663 67.2082C59.668 67.6881 56.089 66.7588 52.926 64.4203C49.7488 61.9302 47.8701 58.7265 47.2897 54.8093C46.8163 50.8467 47.7451 47.2822 50.0759 44.1159C52.4767 40.9967 55.6614 39.1182 59.6302 38.4804C63.6243 37.9926 67.2048 38.9142 70.3716 41.2453C73.5535 43.7281 75.4392 46.9272 76.0285 50.8426M87.4696 49.3694C86.392 42.2639 83.051 36.5192 77.4468 32.1355C71.6714 27.8708 65.2381 26.1727 58.1469 27.0412C51.0914 28.0981 45.3468 31.4544 40.9131 37.11C36.7245 42.7256 35.0369 49.1205 35.8503 56.2947C36.9221 63.4011 40.2588 69.1485 45.8601 73.537C51.6329 77.8064 58.0652 79.5093 65.157 78.6457C72.2131 77.594 77.96 74.2421 82.3976 68.59C86.5902 62.9782 88.2827 56.585 87.4751 49.4103" fill="white"/>
<path d="M50.6082 62.2145C48.8173 60.1224 47.7111 57.6541 47.2897 54.8094C47.0415 52.7317 47.1788 50.7633 47.7015 48.9044L36.2045 47.394C35.6153 50.2141 35.4972 53.1811 35.8502 56.2948C36.45 60.2711 37.7589 63.822 39.7767 66.9474L50.6082 62.2145Z" fill="#FF0000"/>
<path d="M74.7438 58.9212C75.9218 56.4319 76.3403 53.7596 75.9993 50.9042C75.6926 48.8343 75.0428 46.9713 74.0498 45.3151L84.7457 40.8364C86.0554 43.4025 86.9492 46.2342 87.427 49.3312C87.8934 53.3254 87.5639 57.0953 86.4385 60.6412L74.7438 58.9212Z" fill="#FF0000"/>
<path d="M67.748 39.7112C65.1667 38.5605 62.4151 38.1932 59.4933 38.6092C57.3766 38.9719 55.4801 39.6818 53.804 40.7389L48.9604 29.8701C51.5629 28.4669 54.4475 27.4843 57.614 26.9223C61.7013 26.3511 65.5771 26.6016 69.2413 27.6739L67.748 39.7112Z" fill="#FF0000"/>
<path d="M70.9396 63.8961C68.8474 65.6868 66.3788 66.7929 63.534 67.2143C61.4561 67.4625 59.4876 67.3252 57.6286 66.8024L56.1182 78.2986C58.9384 78.8878 61.9056 79.0059 65.0195 78.6529C68.9961 78.0533 72.5473 76.7446 75.6729 74.7268L70.9396 63.8961Z" fill="#FF0000"/>
<path d="M35.9087 42.0068L35.8735 42.0477C35.6467 42.4225 35.2365 43.2037 34.6428 44.3914L33.7459 45.6131L33.9274 44.3064L33.6858 44.5867L33.1365 45.2242C32.6958 45.8504 32.4719 46.3071 32.4649 46.5941C32.4471 46.8255 32.5251 47.0231 32.699 47.1869C32.8599 47.3327 33.0499 47.4342 33.2688 47.4915C33.3037 47.5007 33.3393 47.5086 33.3756 47.5154C33.3981 47.5198 33.4208 47.5236 33.4438 47.5269C33.4556 47.5283 33.4673 47.5296 33.4789 47.5308C33.5295 47.536 33.5794 47.5388 33.6284 47.5393C34.0967 47.544 34.4933 47.3381 34.8181 46.9213C35.3623 46.2078 35.7256 44.5719 35.9082 42.0134L35.9087 42.0068Z" fill="#FF0000" fill-opacity="0.0509804"/>
<path d="M97.2421 82.1865L96.7735 81.7675C94.9415 80.1657 93.9099 79.0255 93.6787 78.3468C93.3714 73.0219 92.7471 69.778 91.8058 68.615C91.7575 68.5303 91.5779 68.3427 91.2668 68.0523L89.7763 66.9149C88.306 65.5421 87.3481 64.7298 86.9026 64.478C85.7939 63.7348 84.4747 63.1031 82.945 62.583C81.3784 62.0712 80.285 61.867 79.6649 61.9704C78.9941 62.1011 78.8146 62.4288 79.1264 62.9536C79.4689 63.3939 79.8566 63.7307 80.2895 63.964C80.6154 64.1954 81.8491 64.8257 83.9907 65.8548C84.4972 66.116 84.9192 66.3633 85.2567 66.5965C85.8532 67.0057 86.3865 67.4934 86.8568 68.0596C84.8488 67.6609 83.3491 67.4794 82.3576 67.515C82.1251 67.5126 81.7283 67.5372 81.1672 67.5887L78.4978 67.9464L76.4157 68.1209C75.5076 68.2664 75.116 68.7919 75.2409 69.6976C75.5528 70.2509 76.0759 70.5319 76.8101 70.5406C76.8799 70.6477 78.7663 70.5648 82.4691 70.292C83.434 70.2989 84.2749 70.4167 84.9918 70.6452L76.929 71.8842C76.2085 72.0756 75.7964 72.2427 75.6927 72.3855C75.4891 72.5639 75.4063 72.7594 75.4444 72.9721C75.6397 73.5823 76.439 73.8882 77.8422 73.8897C79.0818 73.8908 81.4192 73.535 84.8544 72.8222C81.4673 73.2118 79.392 73.5719 78.6284 73.9024C77.8103 74.2089 77.3558 74.4536 77.2648 74.6365C77.0964 74.8529 77.1234 75.0529 77.3459 75.2366C77.7903 75.5544 78.3328 75.7445 78.9733 75.8071C79.354 75.8616 79.9586 75.8334 80.7871 75.7224L84.3308 75.9499C85.223 79.3881 86.0132 81.5458 86.7015 82.4228C86.9718 82.8001 87.2536 83.1164 87.5467 83.3717C87.9881 83.7454 88.4391 84.0677 88.8997 84.3385L91.6506 86.8782L97.2421 82.1865Z" fill="#FFCCA4"/>
<path d="M98.079 79.6113L89.7646 87.031L92.6698 90.6119C95.6659 88.7878 97.5944 87.4678 98.4554 86.6517C99.4301 85.8185 100.255 84.6647 100.93 83.1902L98.079 79.6113Z" fill="white"/>
<path d="M101.276 81.8994L90.8975 90.6801L106.154 106.717C107.966 105.138 109.724 103.444 111.426 101.636C112.737 100.159 113.973 98.6569 115.135 97.1292H115.137L114.816 96.8037L101.276 81.8994Z" fill="black"/>
<path d="M78.9121 73.7887L79.3538 73.7572C80.2475 73.6951 81.0947 73.6299 81.8952 73.5616C82.5362 73.503 82.9074 73.4669 83.0087 73.4534C83.2391 73.4281 83.4552 73.402 83.6572 73.3748C83.8582 73.3476 84.0451 73.3195 84.2177 73.2903C84.3179 73.2768 84.5512 73.2315 84.9177 73.1543C85.2719 73.0764 85.688 72.962 86.166 72.811L78.9121 73.7887Z" fill="#FF0000" fill-opacity="0.14902"/>
<path d="M124.146 88.3755C119.911 88.4874 116.662 89.5223 114.4 91.4802C113.101 92.0436 110.806 95.6839 107.516 102.401C106.869 103.327 106.001 104.001 104.913 104.421C104.235 104.637 103.459 104.745 102.586 104.745C101.774 104.745 100.879 104.652 99.8989 104.466C90.1899 101.909 84.741 100.63 83.5522 100.63C83.4935 100.63 83.4452 100.633 83.4073 100.639C82.3365 100.508 81.2976 100.442 80.2904 100.442C78.7249 100.442 77.2362 100.601 75.8242 100.919C73.4076 101.417 70.7938 102.428 67.9829 103.953C67.4065 103.978 62.2348 107.499 52.4678 114.516C50.0548 116.014 47.838 116.96 45.8174 117.352C45.2094 117.473 44.6058 117.533 44.0065 117.533C41.9946 117.533 40.0319 116.853 38.1186 115.492C36.2155 114.386 32.817 110.888 27.9232 104.998L14.7607 107.591H14.7617C16.7568 110.039 18.9526 112.389 21.349 114.64C34.443 126.214 49.4302 132 66.3104 132C67.1612 132 68.0168 131.985 68.8771 131.956C87.033 130.87 102.288 123.767 114.642 110.647C120.604 103.928 125.03 96.6832 127.92 88.9134H127.922C126.832 88.672 125.666 88.4932 124.422 88.3769L124.146 88.3755Z" fill="#80FFFB"/>
<path d="M119.984 103.904C106.845 109.189 99.5954 112.02 98.2338 112.398C93.0139 114.257 87.8903 115.692 82.8631 116.703C77.5191 118.158 60.4433 120.025 31.6357 122.305H31.6369C42.1374 128.768 53.6954 132 66.3106 132C67.1614 132 68.0169 131.985 68.8773 131.956C87.0332 130.87 102.288 123.767 114.643 110.647C116.587 108.455 118.368 106.208 119.986 103.904H119.984Z" fill="black" fill-opacity="0.278431"/>
<path d="M62.2513 10.5288C47.014 11.5367 34.1823 17.6321 23.7562 28.8151C13.646 40.298 8.85437 53.6921 9.38146 68.9972C10.3433 84.2799 16.4066 97.1472 27.5712 107.599C39.3111 117.829 52.6691 122.656 67.6454 122.079C83.3294 121.044 96.3069 114.937 106.578 103.757C116.682 92.2727 121.469 78.8768 120.937 63.5694C120.027 48.3437 113.903 35.4296 102.566 24.8272C90.9869 14.7503 77.6829 9.97838 62.6537 10.5114" fill="black" fill-opacity="0.0470588"/>
</svg>
