<svg width="139" height="139" viewBox="0 0 139 139" fill="none" xmlns="http://www.w3.org/2000/svg">
<path fill-rule="evenodd" clip-rule="evenodd" d="M110.197 12H28.8004C19.5599 12 12 19.5584 12 28.7993V110.203C12 119.445 19.5598 127 28.8004 127H110.197C119.44 127 127 119.444 127 110.203V28.7993C127 19.558 119.441 12 110.197 12Z" fill="#88AB8E"/>
<path d="M110.197 12H28.8004C19.5599 12 12 19.5584 12 28.7993V110.203C12 119.445 19.5598 127 28.8004 127H110.197C119.44 127 127 119.444 127 110.203V28.7993C127 19.558 119.441 12 110.197 12Z" stroke="#88AB8E" stroke-width="22.2294" stroke-miterlimit="2.613"/>
<path d="M111.524 14.3973H27.4815C20.2843 14.3973 14.3943 20.1597 14.3943 27.2079V111.797C14.3943 118.848 20.2843 124.61 27.4815 124.61H111.524C118.716 124.61 124.606 118.848 124.606 111.797V27.2079C124.606 20.1597 118.716 14.3973 111.524 14.3973Z" stroke="#41908D" stroke-width="5.5125" stroke-miterlimit="2.613"/>
<path fill-rule="evenodd" clip-rule="evenodd" d="M67.9308 92.9023L72.2478 90.315C70.8412 88.1554 68.0371 85.3466 64.0451 85.5626C59.4083 85.6765 57.0353 89.2324 56.9286 92.5774C56.7109 97.9741 60.7014 99.5921 64.8001 102.509C66.4201 103.798 67.9308 106.715 65.9863 108.112C64.0451 109.519 61.9964 107.571 61.1346 105.957L56.7109 108.653C58.9772 112.426 60.8076 114.266 65.449 114.05C67.9308 114.05 72.9961 111.57 72.3519 104.876C72.0301 100.67 68.1438 98.6233 64.5872 95.9229C63.4009 95.0569 62.4277 93.4383 62.6453 92.4746C62.9698 90.9594 64.1513 90.315 65.449 90.7428C66.6379 91.0672 67.3935 91.9336 67.9308 92.9023Z" fill="#41908D"/>
<path fill-rule="evenodd" clip-rule="evenodd" d="M109.137 92.9023L113.451 90.315C112.159 88.1554 109.246 85.3466 105.253 85.5626C100.616 85.6765 98.244 89.2324 98.1398 92.5774C97.9216 97.9741 102.014 99.5921 106.006 102.509C107.626 103.798 109.137 106.715 107.195 108.112C105.253 109.519 103.202 107.571 102.449 105.957L97.9216 108.653C100.186 112.426 102.122 114.266 106.65 114.05C109.137 114.05 114.209 111.57 113.555 104.876C113.238 100.67 109.355 98.6233 105.788 95.9229C104.604 95.0569 103.638 93.4383 103.857 92.4746C104.174 90.9594 105.362 90.315 106.65 90.7428C107.839 91.0672 108.597 91.9336 109.137 92.9023Z" fill="#41908D"/>
<path fill-rule="evenodd" clip-rule="evenodd" d="M85.6173 108.328C88.1034 108.328 88.5346 104.014 88.5346 99.2612C88.5346 95.4885 88.1034 91.1744 85.6173 91.1744C83.0314 91.1744 82.7043 95.4885 82.6003 99.2612C82.6003 104.014 83.0314 108.328 85.6173 108.328ZM85.6173 85.2427C91.9824 85.2427 94.3554 92.5768 94.4643 98.8388C94.4643 106.818 91.9824 114.481 85.6173 114.158C79.0388 114.482 76.557 106.818 76.6658 98.8388C76.6658 92.5768 79.1477 85.2427 85.6173 85.2427Z" fill="#41908D"/>
<path fill-rule="evenodd" clip-rule="evenodd" d="M85.7364 29.2206L79.9506 24.3626C47.363 17.6112 13.117 81.5009 27.6503 88.0413L34.0454 94.309C35.7691 95.4586 38.5532 95.701 40.8813 92.5722L51.187 80.3054C51.6008 79.4598 54.5133 75.6361 48.1457 71.4714L45.9834 69.0644C41.2903 71.0948 56.49 44.1075 65.151 46.6057L68.6283 49.2244C70.6717 50.3475 72.7424 53.582 76.3582 50.3426L88.0141 36.8233C89.2029 33.6303 89.6436 33.1074 85.7356 29.221" fill="#41908D"/>
<path d="M85.7364 29.2206L79.9506 24.3626C47.363 17.6112 13.117 81.5009 27.6503 88.0413L34.0454 94.309C35.7691 95.4586 38.5532 95.701 40.8813 92.5722L51.187 80.3054C51.6008 79.4598 54.5133 75.6361 48.1457 71.4714L45.9834 69.0644C41.2903 71.0948 56.49 44.1075 65.151 46.6057L68.6283 49.2244C70.6717 50.3475 72.7424 53.582 76.3582 50.3426L88.0141 36.8233C89.2029 33.6303 89.6436 33.1074 85.7356 29.221L85.7364 29.2206Z" stroke="#41908D" stroke-width="2.385" stroke-miterlimit="2.613"/>
</svg>
