<?xml version="1.0" encoding="utf-8"?>
<!-- Generator: Adobe Illustrator 24.0.2, SVG Export Plug-In . SVG Version: 6.00 Build 0)  -->
<svg version="1.1" id="Warstwa_2_1_" xmlns="http://www.w3.org/2000/svg" xmlns:xlink="http://www.w3.org/1999/xlink" x="0px"
	 y="0px" viewBox="0 0 2087.3400879 1568.2277832" style="enable-background:new 0 0 2087.3400879 1568.2277832;"
	 xml:space="preserve">
<style type="text/css">
	.st0{fill:#E7E6EB;stroke:#000000;stroke-width:5;stroke-miterlimit:10;}
	.st1{fill:#F8F7F7;stroke:#000000;stroke-width:5;stroke-miterlimit:10;}
	.st2{fill:#59585B;stroke:#000000;stroke-width:5;stroke-miterlimit:10;}
	.st3{fill:#EA4F47;stroke:#000000;stroke-width:5;stroke-miterlimit:10;}
	.st4{fill:#FFFFFF;stroke:#000000;stroke-width:5;stroke-miterlimit:10;}
	.st5{fill:#5CB8D7;stroke:#000000;stroke-width:5;stroke-miterlimit:10;}
	.st6{fill:none;stroke:#000000;stroke-width:5;stroke-miterlimit:10;}
	.st7{fill:#FFD333;stroke:#000000;stroke-width:5;stroke-miterlimit:10;}
	.st8{fill:#F8F1D4;}
	.st9{fill:none;stroke:#3D3D3D;stroke-width:5;stroke-miterlimit:10;}
	.st10{fill:#F29745;}
	.st11{fill:none;stroke:#A8A7A7;stroke-width:5;stroke-miterlimit:10;}
</style>
<g>
	<g>
		<path class="st0" d="M608.4015503,115.2679443h11.4638672c26.2937012,0,52.5615845,1.6476364,78.649231,4.9332352
			l837.12146,105.4309158c16.4526367,2.0721283,31.7841797,9.4421082,43.6785889,20.9966583l140.6523438,136.633667h-463.6933594
			l-772.9778442-38.081665l-315.5373535-0.158783c-25.7003632-0.0129089-38.9508057-30.7321167-21.322998-49.4342651
			l157.2537231-160.889389c12.170105-12.4514923,28.9681702-19.2869263,46.3738098-18.8456497
			c48.5932922,1.2319717,139.0613098,12.1654282,207.8675232,26.392128
			C557.930542,142.2447968,572.0671997,113.9342117,608.4015503,115.2679443z"/>
		<path class="st1" d="M1490.0670166,373.5204773l89.8181152,2.5148926
			c7.5831299,0.2123413,11.663208-8.8252563,6.4885254-14.3725281l-93.5445557-100.2797241
			c-7.1547852-7.6699982-20.0045166-2.6071167-20.0045166,7.881958v86.523468
			C1472.824585,365.3920898,1480.4672852,373.2516785,1490.0670166,373.5204773z"/>
		<path class="st1" d="M1436.9733887,368.1713867c5.7764893,0.3336792,10.644043-4.2607422,10.644043-10.0469055v-0.0000305
			v-88.8336182c0-7.7503967-8.8660889-12.1570435-15.0441895-7.4773254l-114.9614258,87.0804138
			c-5.2061768,3.9373474-2.6879883,12.227417,3.8286133,12.6038513L1436.9733887,368.1713867z"/>
		<path class="st1" d="M1249.5686035,350.0537109c0,6.6124268,7.2828369,10.6351929,12.8800049,7.1144104l5.4057617-3.4003601
			l130.2042236-91.5376282c6.5650635-4.615509,4.0518799-14.8887787-3.9025879-15.9522552L1268.4016113,229.46492
			c-9.9709473-1.3330688-18.8330078,6.4230347-18.8330078,16.4826508V350.0537109z"/>
		<path class="st1" d="M1220.8546143,240.218338v103.1776581c0,7.9693298-9.317627,12.2995911-15.4091797,7.1612244
			l-159.4643555-134.509964c-4.8011475-4.0498047-1.4282227-11.8665771,4.8120117-11.1520386l154.3139648,17.6695404
			C1214.079834,223.5921631,1220.8546143,231.1869202,1220.8546143,240.218338z"/>
		<path class="st1" d="M981.1213379,345.0011902l159.1494141,7.0061035
			c5.7806396,0.2544556,8.6252441-6.9381104,4.234375-10.7064819l-165.0585327-141.65625
			c-5.9764404-5.1291046-15.2165527-0.8827362-15.2165527,6.9929199v120.7124634
			C964.2300415,336.8057251,971.6747437,344.5853271,981.1213379,345.0011902z"/>
		<path class="st1" d="M935.8433838,326.78302V201.183075c0-7.955658-8.975769-12.5990753-15.4692993-8.0027161
			L741.3803711,319.8789978c-4.7880859,3.3891907-2.6570435,10.9143982,3.1970825,11.2898254l174.6477661,11.2006836
			C928.2258911,342.9467468,935.8433838,335.8021545,935.8433838,326.78302z"/>
		<path class="st1" d="M663.3845825,314.2338867c0.1311035,6.3674011,7.3197021,10.0058289,12.5284424,6.341095
			l180.8615112-127.2501068c5.6231689-3.888382,3.53479-12.6581726-3.2374268-13.5947418l-181.102356-25.0460815
			c-6.4057007-0.8858948-12.1179199,4.0907288-12.1179199,10.557373L663.3845825,314.2338867z"/>
		<path class="st1" d="M631.5405273,304.9008179V159.1750336c0-6.4074249-7.7860718-9.5723572-12.2564697-4.9821014
			L478.5365295,298.7138367c-5.9919128,6.1525574-1.8930359,16.4960938,6.6868286,16.8742065l129.1979675,5.6940918
			C623.7515869,321.6933289,631.5405273,314.2400818,631.5405273,304.9008179z"/>
		<polyline class="st0" points="557.930542,142.2447968 410.3629456,300.1051331 203.0515442,300.1051331 		"/>
		<path class="st1" d="M357.4567871,300.1051331V156.6450043c0-6.2163696-7.5409546-9.3014832-11.8981018-4.867691
			L204.8117371,295.0006714c-1.8651428,1.8979797-0.5205536,5.1044617,2.1404572,5.1044617H357.4567871z"/>
		<path class="st1" d="M383.1938477,300.1051331h27.1690979l126.4407043-135.3229065l-136.350769-18.0873413
			c-9.1408081-1.2125549-17.2590332,5.8998718-17.2590332,15.1207275V300.1051331z"/>
	</g>
	<g>
		<path class="st2" d="M1083.9029541,1084.0594482c132.9317627-9.5977783,138.263916,118.5119629,138.263916,118.5119629
			s41.0841064,273.3674316-160.3861084,281.2681885c-201.4702759,7.9008789-200.6802368-147.6015625-200.6802368-147.6015625
			S939.9901733,1094.4501953,1083.9029541,1084.0594482z"/>
		<ellipse class="st0" cx="1103.0288086" cy="1272.1190186" rx="63.7548828" ry="117.1964111"/>
	</g>
	<path class="st3" d="M1822.4682617,438.730957c0,0,121.625,14.7058105,142.8392334,83.2984619l2.3009033,612.6119385
		l-299.4781494,22.4180908l-357.668335,26.7784424v-579.762146l-84.847168-151.2548218L1822.4682617,438.730957z"/>
	<g>
		<path class="st2" d="M1565.3735352,1270.9672852c0,0,12.8677979,128.6636963,161.8249512,126.9042969
			c148.9572754-1.7592773,153.0880127-157.7180176,153.0880127-157.7180176s16.3947754-205.291748-86.2331543-201.1866455
			c-102.6280518,4.1051025-107.9060059,137.2282715-107.9060059,137.2282715L1565.3735352,1270.9672852z"/>
		<ellipse class="st0" cx="1782.8664551" cy="1205.8547363" rx="58.7504883" ry="103.0161133"/>
	</g>
	<path class="st2" d="M1271.9656982,483.1340027l543.5415039-15.7647705
		c34.2712402-93.2177124-63.7445068-83.6217651-63.7445068-83.6217651H992.9979248v81.5654907L1271.9656982,483.1340027z"/>
	<path class="st0" d="M1238.1365967,1190.4685059l429.9937744-33.4090576c0,0,14.9379883-155.9194946,126.2797852-157.8988647
		c91.5344238-1.6273193,115.9567871,138.6453247,115.9567871,138.6453247l57.2414551-3.1645508
		c0,0,8.0267334-0.4953613,14.9506836,11.15979c3.4064941,5.734375,5.1119385,12.3039551,5.3896484,18.9681396
		c0.4387207,10.5233154-0.470459,19.4560547-2.1707764,26.9969482
		c-4.6983643,20.838501-22.0343018,36.4589844-43.1810303,39.4814453l-62.3103027,8.9057617
		c0,0,21.7471924-203.4782715-92.3424072-200.0804443c-125.0198975,3.7233887-93.8106689,218.5429688-93.8106689,218.5429688
		l-470.5527344,45.1379395c0,0,30.7161865-217.7852783-114.5421143-211.8747559
		c-140.3148804,5.7094727-103.831604,232.673584-103.831604,232.673584l-108.0946045,7.8500977l0.8814697-116.9945068
		l66.2131958-8.689209c0,0-9.7036743-142.2844238,135.4376221-152.1605225S1238.1365967,1190.4685059,1238.1365967,1190.4685059z"/>
	<path class="st3" d="M1000.1205444,458.0101929h104.9584351c32.7854004,0,65.4874268,3.881073,97.2401123,12.0448303
		c61.9105225,15.9175415,136.333374,52.0617371,108.1428223,132.6058655v581.177002l-72.3253174,6.6306152
		c0,0,9.2050781-145.9656982-148.5955811-135.4456787c0,0-114.4055786,2.630127-124.9257202,165.6907959l-69.6953125,7.8900146
		h-751.536438V874.5928345l94.065918-293.0089722c9.9595337-15.8460693,28.3040161-40.5422974,58.6873169-61.9816895
		c36.9266357-26.0566406,73.1864014-34.2841187,92.7602539-37.2720947L1000.1205444,458.0101929z"/>
	<path class="st4" d="M395.0449829,478.6433105c0,0-102.177002,15.0026855-155.0546112,94.5339355l-96.6068115,301.4155884
		l729.1891479,0.6650391l437.8892212-23.6995239v-247.482605c0,0,15.8684082-43.793335-2.3612061-69.2092285
		c-17.4521484-24.3319397-27.543335-41.6037598-98.0355225-62.7260132
		c-53.8768311-16.1436157-110.8765869-15.8644409-134.7536621-14.8359375
		c-10.5440674,0.4541626-21.0949707,0.7056274-31.6488037,0.7056274h-43.5421753L395.0449829,478.6433105z"/>
	<path class="st2" d="M220.4954224,630.774353h-74.2085571c-11.2384796,0-20.3490677,9.1105957-20.3490677,20.3490601v194.9667358
		c0,7.7963867,6.3202286,14.1166382,14.1166306,14.1166382h6.4030609L220.4954224,630.774353z"/>
	<path class="st5" d="M230.0341339,601.0619507l254.9089508-4.3344727
		c14.5114746-0.2467651,25.3696289,13.2431641,22.02771,27.3667603l-46.6737976,197.2524414
		c-4.1896667,17.7063599-19.9993286,30.2116699-38.1946106,30.2116699H149.6162109L230.0341339,601.0619507z"/>
	<path class="st5" d="M505.7411499,821.2849731l49.5408325-195.3236694
		c4.3613892-17.1956787,19.8383179-29.2371826,37.5784302-29.2371826h277.4544678
		c12.0168457,0,20.9667358,11.0914917,18.4275513,22.8369751L843.118103,830.604126
		c-2.6433716,12.227356-13.4584961,20.9542236-25.9683228,20.9542236H529.2947388
		C513.4519653,851.5583496,501.8462219,836.6414795,505.7411499,821.2849731z"/>
	<path class="st5" d="M1055.1243896,597.3734131l-107.2435913,4.3773193
		c-14.2771606,0.5827637-25.5513916,12.3265991-25.5513916,26.6156006v211.2883911h126.2904663
		c12.3775635,0,22.411499-10.0339355,22.411499-22.411499V612.6444092
		C1071.0313721,603.9589233,1063.8026123,597.019165,1055.1243896,597.3734131z"/>
	<line class="st6" x1="1093.0102539" y1="1041.6379395" x2="1093.0102539" y2="563.0797729"/>
	<path class="st5" d="M1255.2114258,584.3875122l-123.3916016,6.7698364
		c-10.3522949,0.5679932-18.4555664,9.1279907-18.4555664,19.4957886v203.1494751
		c0,10.0444946,8.4951172,17.994751,18.5175781,17.3300171l119.2097168-7.9067383
		c12.7608643-0.8464355,22.6317139-11.5246582,22.4742432-24.312561l-2.4587402-199.6628418
		C1271.0014648,590.6763306,1263.7733154,583.9177246,1255.2114258,584.3875122z"/>
	<path class="st2" d="M994.630249,630.7115479h-87.5748901c-8.0575562,0-14.5894775,6.5319824-14.5894775,14.5895386v204.5658569
		c0,5.4768677,4.4398804,9.916748,9.916748,9.916748h95.708374c5.5942993,0,10.1293945-4.5350952,10.1293945-10.1293945V644.3016968
		C1008.2203979,636.7960815,1002.1358643,630.7115479,994.630249,630.7115479z"/>
	<path class="st6" d="M961.7315674,483.1340027c0,0-87.1282959,7.4120483-83.7247925,73.4389343"/>
	<polyline class="st6" points="252.6199951,573.1772461 944.5513916,573.1772461 1281.166748,552.9180298 	"/>
	<g>
		<path class="st7" d="M857.843689,1148.8342285H672.8244019v-76.0876465c0-15.133667,12.2682495-27.4018555,27.4018555-27.4018555
			h130.2156372c15.133606,0,27.4017944,12.2681885,27.4017944,27.4018555V1148.8342285z"/>
		<circle class="st8" cx="756.0170288" cy="1097.588623" r="44.0507813"/>
	</g>
	<path class="st7" d="M290.2737427,1148.8342285H143.3835602v-79.3653564c0-15.133667,12.2682037-27.4018555,27.4018097-27.4018555
		h92.0865784c15.133606,0,27.4017944,12.2681885,27.4017944,27.4018555V1148.8342285z"/>
	<g>
		<path class="st2" d="M672.8244019,1158.4885254H282.1517639v-192.585144
			c0-18.6132813,15.0890808-33.7023926,33.7023926-33.7023926h323.2678528
			c18.6133423,0,33.7023926,15.0891113,33.7023926,33.7023926V1158.4885254z"/>
		<g>
			<line class="st9" x1="284.5345154" y1="982.840271" x2="670.124939" y2="982.840271"/>
			<line class="st9" x1="284.5345154" y1="1026.609375" x2="670.124939" y2="1026.609375"/>
			<line class="st9" x1="284.5345154" y1="1070.3782959" x2="670.124939" y2="1070.3782959"/>
			<line class="st9" x1="284.5345154" y1="1114.0419922" x2="670.124939" y2="1114.0419922"/>
		</g>
	</g>
	<path class="st2" d="M1277.7736816,905.2686157h-26.5515137c-6.5999756,0-12-5.3999634-12-12v-10.9085693
		c0-6.5999756,5.4000244-12,12-12h26.5515137c6.5999756,0,12,5.4000244,12,12v10.9085693
		C1289.7736816,899.8686523,1284.3736572,905.2686157,1277.7736816,905.2686157z"/>
	<path class="st2" d="M1065.9038086,922.7229004h-28.8919678c-6.5999756,0-12-5.3999634-12-12v-10.9085693
		c0-6.5999756,5.4000244-12,12-12h28.8919678c6.5999756,0,12,5.4000244,12,12v10.9085693
		C1077.9038086,917.322937,1072.5037842,922.7229004,1065.9038086,922.7229004z"/>
	<line class="st6" x1="872.5727539" y1="851.5583496" x2="872.5727539" y2="1154.9226074"/>
	<path class="st0" d="M881.5892944,1339.1160889H139.0885315c-11.7757797,0-21.3219299-9.5461426-21.3219299-21.3218994
		v-148.3007813c0-11.7757568,9.5461502-21.3218994,21.3219299-21.3218994h742.5007324
		c11.7757568,0,21.3218994,9.5461426,21.3218994,21.3218994v148.3007813
		C902.9111938,1329.5699463,893.3650513,1339.1160889,881.5892944,1339.1160889z"/>
	<path class="st2" d="M240.412796,1339.1159668c20.447403,80.3009033,93.2376251,139.6915283,179.9036407,139.6915283
		s159.4562683-59.390625,179.903656-139.6915283H240.412796z"/>
	<line class="st6" x1="1342.3164063" y1="547.4865112" x2="1928.5361328" y2="518.4937134"/>
	<path class="st6" d="M897.9939575,1215.4084473"/>
	<path class="st3" d="M243.9010773,488.0372925"/>
	<circle class="st8" cx="220.4954224" cy="1097.588623" r="44.0507813"/>
	<g>
		<path class="st3" d="M420.8588867,476.1793518h540.1505127c11.9893799,0,23.7509155-3.8588562,33.0886841-11.3788452
			c9.2288208-7.4321289,17.3816528-19.2947998,16.0302124-37.7645264
			c-1.1227417-15.3442688-7.0952759-27.3890991-14.0614014-36.4223938
			c-10.4346313-13.5310974-26.5761108-21.4318542-43.6620483-21.6383667l-522.6600342-6.3171082
			c0,0-67.6980896-1.8156738-76.4650879,56.7606201c0,0-2.3590088,24.1095581,23.6652527,42.8874817
			C389.6897278,471.5022278,405.1428223,476.1793518,420.8588867,476.1793518z"/>
		<g>
			<circle class="st10" cx="826.6574097" cy="418.5109558" r="36.0569458"/>
			<circle class="st8" cx="826.6574097" cy="418.5109558" r="18.5909271"/>
		</g>
		<g>
			<circle class="st10" cx="705.9627686" cy="418.5109558" r="36.0569458"/>
			<circle class="st8" cx="705.9627686" cy="418.5109558" r="18.5909271"/>
		</g>
		<g>
			<circle class="st10" cx="557.930542" cy="418.5109558" r="36.0569458"/>
			<circle class="st8" cx="557.930542" cy="418.5109558" r="18.5909271"/>
		</g>
		<path class="st4" d="M660.3168335,365.4449158c0,0-57.1953735,47.7651978-7.5211182,110.734436h-66.7341309
			c0,0-41.1590576-56.2331238,8.020813-111.5349731L660.3168335,365.4449158z"/>
		<path class="st6" d="M907.6489258,368.4342957c0,0-52.7208252,1.5589905-53.6539307,56.6105652
			c0,0,4.1988525,39.18927,41.5219727,37.3231201"/>
		<g>
			<circle class="st10" cx="443.3665466" cy="418.5109558" r="36.0569458"/>
			<circle class="st8" cx="443.3665466" cy="418.5109558" r="18.5909119"/>
		</g>
	</g>
	<g>
		<g>
			<ellipse class="st3" cx="800.067749" cy="531.0471191" rx="32.3327637" ry="15.3154907"/>
			<circle class="st8" cx="800.067749" cy="531.0471191" r="10.9995117"/>
		</g>
		<g>
			<ellipse class="st3" cx="647.0864258" cy="531.0471191" rx="32.3327637" ry="15.3154907"/>
			<circle class="st8" cx="647.0864258" cy="531.0471191" r="10.9995117"/>
		</g>
		<g>
			<ellipse class="st3" cx="475.6993103" cy="531.0471191" rx="32.3327637" ry="15.3154907"/>
			<circle class="st8" cx="475.6993103" cy="531.0471191" r="10.9995117"/>
		</g>
		<g>
			<ellipse class="st3" cx="340.9057922" cy="531.0471191" rx="32.3327637" ry="15.3154907"/>
			<circle class="st8" cx="340.9057922" cy="531.0471191" r="10.9995117"/>
		</g>
	</g>
	<g>
		<path class="st0" d="M1359.692627,597.7001953l167.2287598-7.0930176
			c6.0325928-0.2558594,11.0631104,4.5657959,11.0631104,10.6038818v157.6643677
			c0,9.5167236-7.480835,17.3525391-16.9873047,17.793457l-167.6201172,7.7744751
			c-6.0239258,0.2794189-11.0606689-4.5291138-11.0606689-10.5595703V615.8291016
			C1342.3164063,606.1068726,1349.979126,598.1122437,1359.692627,597.7001953z"/>
		<g>
			<line class="st11" x1="1344.8088379" y1="651.9699707" x2="1535.3830566" y2="643.1384888"/>
			<line class="st11" x1="1344.8088379" y1="694.4008789" x2="1535.3830566" y2="685.569397"/>
			<line class="st11" x1="1344.8088379" y1="736.8318481" x2="1535.3830566" y2="728.0003662"/>
		</g>
	</g>
	<g>
		<path class="st0" d="M1595.0319824,583.9358521l138.7879639-3.7780762
			c7.7801514-0.211792,14.2019043,6.0374756,14.2019043,13.8205566v149.609314
			c0,9.2625732-7.2597656,16.8999023-16.510498,17.3691406l-136.6965332,6.9338989
			c-8.4442139,0.4282837-15.5255127-6.3028564-15.5255127-14.7579346V600.112854
			C1579.2893066,591.3467407,1586.269165,584.1744385,1595.0319824,583.9358521z"/>
		<g>
			<line class="st11" x1="1582.0775146" y1="639.8970337" x2="1745.2336426" y2="634.4912109"/>
			<line class="st11" x1="1582.0775146" y1="682.3279419" x2="1745.2336426" y2="676.9221802"/>
			<line class="st11" x1="1582.0775146" y1="726.2758789" x2="1745.2336426" y2="720.8701172"/>
		</g>
	</g>
	<g>
		<path class="st0" d="M1792.9465332,752.0943604l118.262085-4.3433838
			c9.6708984-0.3551636,17.3275146-8.2981567,17.3275146-17.975647V581.789856
			c0-6.6524048-5.5478516-11.9614868-12.1938477-11.6689453l-119.9674072,5.2808228
			c-8.6907959,0.3825684-15.539917,7.5397339-15.539917,16.2390137v148.7786255
			C1780.8349609,747.0397949,1786.3306885,752.3373413,1792.9465332,752.0943604z"/>
		<g>
			<line class="st11" x1="1783.2995605" y1="631.6887817" x2="1925.8052979" y2="626.5569458"/>
			<line class="st11" x1="1783.4327393" y1="672.1774902" x2="1925.9383545" y2="667.0457153"/>
			<line class="st11" x1="1783.4327393" y1="718.9539185" x2="1925.9383545" y2="713.8221436"/>
		</g>
	</g>
	<g>
		<path class="st0" d="M1595.5811768,958.96521l136.1087646-10.6561279
			c9.2189941-0.7217407,16.3319092-8.413269,16.3319092-17.6605225V825.4067383
			c0-7.9919434-6.7105713-14.3448486-14.6905518-13.9075317l-135.2583008,7.4126587
			c-11.4197998,0.6258545-20.3590088,10.0683594-20.3590088,21.5053101v102.0250244
			C1577.7139893,952.1054077,1585.9475098,959.7194824,1595.5811768,958.96521z"/>
		<g>
			<line class="st11" x1="1580.3972168" y1="860.7990112" x2="1745.4515381" y2="852.3248901"/>
			<line class="st11" x1="1580.3408203" y1="909.6271362" x2="1745.3951416" y2="901.1530151"/>
		</g>
	</g>
	<g>
		<path class="st0" d="M1343.1575928,1181.0458984l196.7275391-14.0375977l-0.0003662-324.8925171
			c0.0581055-9.4138184-7.8653564-16.90979-17.2615967-16.3300781l-161.1739502,9.9431152
			c-9.3969727,0.5797119-16.7419434,8.3341675-16.8114014,17.7487183L1343.1575928,1181.0458984z"/>
		<g>
			<line class="st11" x1="1347.0812988" y1="900.6047363" x2="1537.3273926" y2="890.2128296"/>
			<line class="st11" x1="1346.6195068" y1="947.4005127" x2="1536.8657227" y2="937.008606"/>
			<line class="st11" x1="1347.0812988" y1="989.7611694" x2="1537.3273926" y2="979.3692627"/>
			<line class="st11" x1="1347.0812988" y1="1032.4377441" x2="1537.3273926" y2="1022.0458374"/>
			<line class="st11" x1="1346.6195068" y1="1074.4825439" x2="1536.8657227" y2="1064.0906982"/>
			<line class="st11" x1="1346.3983154" y1="1116.8432617" x2="1536.6444092" y2="1106.4512939"/>
		</g>
	</g>
</g>
</svg>
