<svg width="98" height="98" viewBox="0 0 98 98" fill="none" xmlns="http://www.w3.org/2000/svg">
<g clip-path="url(#clip0_510_1940)">
<path d="M48.6762 28.9344C48.3836 29.328 48.6545 30.8658 50.7828 30.222C50.6222 28.2172 48.9686 28.5405 48.6762 28.9344Z" fill="#FF003E"/>
<path d="M27.1203 11.2633C23.1426 14.0926 20.1581 19.7707 18.1668 28.2976C16.2542 36.9695 15.7938 46.1032 16.7856 55.6987C17.973 65.6442 20.2811 73.1253 23.71 78.1421C27.1924 83.1413 30.9493 84.5061 34.9806 82.2366C39.004 79.465 42.0012 73.9647 43.9722 65.7355C45.9895 56.8824 46.5218 47.5049 45.569 37.6028C44.4015 27.882 41.9687 20.2695 38.2705 14.7652C34.9613 10.005 31.2682 8.82296 27.1911 11.219L27.1203 11.2633Z" fill="black" fill-opacity="0.172549"/>
<path d="M3.73389 78.3689L9.05255 78.242L14.3711 78.1152C14.4371 80.4001 14.5032 82.6849 14.5692 84.9697L3.93193 85.2238C3.86592 82.9388 3.7999 80.6538 3.73389 78.3689Z" fill="black"/>
<path d="M9.65076 81.2805V81.2806C9.62254 82.1311 8.852 82.8055 7.91563 82.7991C6.97927 82.7928 6.21988 82.108 6.20565 81.2572C6.12957 76.715 6.00981 71.6196 7.47207 68.3788C9.06752 64.8426 12.4212 63.5904 15.0168 62.5737C15.8907 62.2313 16.9045 62.5976 17.2812 63.3917C17.6579 64.1858 17.2549 65.1071 16.381 65.4495C13.6391 66.5235 11.6552 67.3623 10.6605 69.5669C9.53268 72.0665 9.57017 76.3613 9.65135 81.2095L6.20623 81.1861C6.23493 80.3218 7.02927 79.6421 7.98045 79.6681C8.93164 79.6942 9.67946 80.4161 9.65076 81.2805Z" fill="black"/>
<path d="M-0.019043 85.0015L54.3218 85.0015L108.663 85.0015C108.663 85.9357 108.663 86.87 108.663 87.8043C72.4355 87.8043 36.2082 87.8044 -0.0190422 87.8044C-0.0190422 86.8701 -0.0190423 85.9358 -0.019043 85.0015Z" fill="black"/>
<path d="M26.4871 21.1905C26.0072 21.1547 25.5838 21.2166 25.217 21.3761C25.0428 21.4463 24.8368 21.5485 24.599 21.6827C23.69 22.1983 23.1799 22.4995 23.0687 22.5866C22.2675 23.1039 21.812 23.7051 21.7022 24.3903C21.5305 25.3542 21.7682 26.4206 22.4153 27.5895C22.9201 28.5248 23.711 29.2568 24.788 29.7853L28.2456 23.5255L28.6074 22.626C28.9172 22.4173 29.0771 22.2485 29.0869 22.1197C29.1178 21.9043 28.9466 21.731 28.5734 21.5997C27.8639 21.3877 27.1712 21.2514 26.4953 21.1909L26.4871 21.1905Z" fill="black"/>
<path d="M28.3255 23.0054L27.9207 23.058L26.6197 23.5657C26.6968 23.9374 26.6638 24.1808 26.5208 24.2957C26.4661 24.347 26.3966 24.3881 26.3123 24.419C25.8299 24.5496 25.5579 24.637 25.4964 24.6813C25.337 24.7613 25.2208 24.8596 25.1476 24.9761C25.0416 25.1279 25.0006 25.3686 25.0246 25.6982C25.0194 25.8805 25.1353 26.4651 25.3723 27.4518C25.3987 27.62 25.3883 27.7215 25.341 27.7563C25.2871 27.8121 25.1302 27.7314 24.8703 27.5143C24.9098 27.0482 24.7986 26.775 24.5366 26.6946C24.3025 26.6116 24.0634 26.5997 23.8193 26.6588C23.5925 26.7239 23.461 26.8366 23.4248 26.997C23.3355 27.2292 23.5451 27.793 24.0536 28.6882C23.7705 28.7995 23.6386 28.896 23.6577 28.9777C23.643 29.0479 23.7228 29.1939 23.8972 29.4159L24.1923 30.443L23.9657 31.1195L26.027 33.3709L28.5411 31.4599L28.4172 30.2378C28.4894 30.36 29.0079 30.383 29.9726 30.3067C30.3277 30.2649 30.5242 30.1397 30.5621 29.9312L30.6355 29.2592L30.5178 28.3838L30.1462 27.4118C30.7095 27.2066 30.9892 26.9279 30.9851 26.5755C30.9739 26.5325 30.9356 26.4937 30.8702 26.4591C30.7508 26.4359 30.5424 26.3549 30.2453 26.2161C29.9832 25.9714 29.8026 25.7799 29.7032 25.6415C29.5874 25.4858 29.5013 25.318 29.445 25.1383C29.398 25.018 29.3427 24.7336 29.2791 24.2851C29.254 24.1822 29.2185 24.0876 29.1728 24.0013C29.0767 23.802 28.7975 23.4734 28.3353 23.0154L28.3255 23.0054Z" fill="#FDBD99"/>
<path d="M28.6257 30.9427L26.0987 31.7232L23.9241 30.8467L20.9598 32.8151L20.7539 44.7551L23.5383 52.254L28.1496 52.9299L34.0216 49.9355L32.398 36.9719L29.9764 32.1072L28.6311 30.9474L28.6257 30.9427Z" fill="white"/>
<path d="M28.4887 60.1929L28.0566 60.4147L28.4331 60.417L28.4355 60.4233L29.5283 63.3706L28.4905 60.1982L28.4887 60.1929Z" fill="#0E0701"/>
<path d="M27.5729 60.6631L27.3914 60.7564L27.1003 66.9411L27.5729 60.6631Z" fill="#0E0701"/>
<path d="M28.071 67.2104L27.0616 67.7654L27.0542 67.9231L28.071 67.2104Z" fill="#0E0701"/>
<path d="M27.8118 57.9663L26.9131 68.5312L28.438 59.9441C29.3799 62.9148 29.9604 64.7398 30.1795 65.4192C30.5121 66.4556 30.6846 66.9786 30.6972 66.9883C30.7102 66.997 30.5424 66.4204 30.1938 65.2584C29.9519 64.4494 29.3861 62.5792 28.4965 59.6476L28.4923 59.6383L28.436 59.9367L27.8131 57.9704L27.8118 57.9663Z" fill="#0E0701"/>
<path d="M26.41 31.9668L25.8008 32.779L26.3165 33.4028L27.0559 47.2169L28.2361 48.6427L29.6747 47.6569L27.0101 33.3876L27.2064 32.5246L26.4175 31.9721L26.41 31.9668Z" fill="#0E0701"/>
<path d="M20.1318 72.3311C19.98 72.3311 19.8766 72.3353 19.8213 72.3436L19.6592 74.0273L20.5834 74.1632C20.377 75.2146 20.1835 75.9696 20.0029 76.4281C19.9183 76.6523 19.8278 76.8528 19.7314 77.0294L19.6997 77.0828C20.2104 78.039 20.7527 78.9307 21.3268 79.758C21.3306 79.7375 21.3349 79.7169 21.3395 79.6962C21.3886 79.3951 21.6393 78.827 22.0916 77.9918C22.2653 77.6941 22.4521 77.4842 22.6521 77.3621C22.7306 77.3106 22.8186 77.2614 22.9158 77.2143C23.3567 77.0213 23.6261 76.8965 23.7241 76.84C23.9143 76.741 24.1734 76.5928 24.5013 76.3951L22.3551 72.4266L22.3512 72.4193C21.2732 72.3605 20.5334 72.3311 20.1318 72.3311Z" fill="#0E0701"/>
<path d="M26.7296 77.9033L24.6828 79.4173C24.421 80.0018 24.2368 80.6825 24.1301 81.4593C24.056 81.9987 24.0264 82.4596 24.0414 82.842C25.0535 83.7216 26.0744 84.3629 27.104 84.7658C27.2366 84.6879 27.3356 84.5748 27.4012 84.4265C27.5784 84.0989 27.6043 83.3564 27.4788 82.199C27.4278 81.6863 27.3198 80.8658 27.1549 79.7373L26.7299 77.9047L26.7296 77.9033Z" fill="#0E0701"/>
<path d="M28.7346 25.1963V25.1964L28.8214 25.5534C28.5798 25.5625 28.3382 25.5716 28.0967 25.5808L28.7346 25.1963Z" fill="white" fill-opacity="0.996078"/>
<path d="M28.7223 25.1943L28.7352 25.2068C28.7617 25.2316 28.7851 25.2573 28.8053 25.2839C28.8205 25.3064 28.8288 25.3202 28.8301 25.3252C28.8344 25.3346 28.8378 25.3444 28.8402 25.3544C28.8427 25.3644 28.8442 25.3747 28.8447 25.3852L28.8449 25.4012C28.8446 25.4119 28.8436 25.4228 28.842 25.434C28.8382 25.4617 28.8276 25.5019 28.8102 25.5546L28.6218 25.4177L28.7223 25.1943Z" fill="black" fill-opacity="0.996078"/>
<path d="M28.6884 24.9297L28.6409 24.9332C28.545 24.9395 28.4534 24.9486 28.366 24.9604C28.2704 24.9753 28.2019 24.9908 28.1605 25.007C28.115 25.0223 28.0675 25.0459 28.0178 25.0778C28.0096 25.0823 27.9881 25.098 27.9533 25.1247C27.9326 25.1409 27.9001 25.1691 27.856 25.2094L28.6884 24.9297Z" fill="#863608" fill-opacity="0.996078"/>
<path d="M27.8369 23.9897V23.9905L27.8372 23.9911L27.8369 23.9897Z" fill="#863608" fill-opacity="0.996078"/>
<path d="M30.4065 28.0928L30.4738 28.269C30.2152 28.2701 29.858 28.2594 29.4023 28.2371C29.6809 28.2173 29.8881 28.1975 30.0241 28.1777C30.1579 28.1565 30.2354 28.1425 30.2565 28.1355C30.3045 28.1243 30.3496 28.1117 30.3916 28.0977C30.3957 28.0963 30.3999 28.0948 30.4039 28.0934C30.4045 28.0932 30.4051 28.093 30.4056 28.0928L30.4065 28.0928Z" fill="white" fill-opacity="0.996078"/>
<path d="M19.5582 47.9483L18.7997 47.9406L17.8884 47.6792L16.4758 49.4206L17.3216 49.444L17.7034 49.2742L19.2306 49.7321L19.5581 47.949L19.5582 47.9483Z" fill="white"/>
<path d="M20.3683 50.4224L20.2209 52.5539L20.2764 54.4748L24.3927 54.0755L20.3721 50.4259L20.3683 50.4224Z" fill="#0E0701"/>
<path d="M24.0457 30.8135L22.7715 31.4671L17.8216 33.0247L16.0278 35.5886L14.4149 37.1271C14.0415 40.2285 13.844 43.434 13.8223 46.7435C14.546 47.6132 15.4338 48.6371 16.4887 49.8136L18.8225 47.4023L17.4411 46.5112L15.7502 44.6426L14.1891 42.2432L17.569 38.9655L18.3729 38.1218L20.185 48.533L22.5843 48.217L25.2362 50.4954L24.5101 41.37L24.2898 36.3987L24.0434 30.8368L24.0457 30.8135Z" fill="#0E0701"/>
<path d="M28.8067 10.9912C32.3002 9.88024 35.5922 11.7405 38.6827 16.572C41.6027 21.4158 43.5797 27.8814 44.6138 35.9689C45.6002 44.3246 45.3604 52.6796 43.8944 61.0339C42.2031 69.8821 39.5821 76.0495 36.0312 79.5361C32.0378 83.1861 28.0705 82.4868 24.1293 77.4381C20.2807 72.1572 17.8521 63.996 16.8435 52.9545C16.0266 42.7747 16.8907 33.4036 19.4359 24.8413C21.8691 17.1587 24.9873 12.544 28.7905 10.9971M28.4695 8.81035C23.9123 10.4633 20.2173 15.3814 17.3846 23.5647C14.3372 32.8338 13.2439 43.2593 14.1047 54.841C15.2217 67.1204 18.0357 75.9607 22.5466 81.3619C26.9806 86.2918 31.5878 86.5658 36.3681 82.184C40.6013 77.9614 43.6479 71.158 45.5077 61.7737C47.1494 52.8675 47.4233 43.8916 46.3293 34.8459C45.1895 26.2201 42.9803 19.3652 39.7019 14.2811C36.3526 9.33034 32.6206 7.50263 28.5057 8.79796L28.4695 8.81035Z" fill="black"/>
<path d="M43.3772 37.8012L43.6764 37.4605C44.5751 36.4333 45.2431 35.7418 45.6803 35.3862C46.2332 34.9217 46.6827 34.6946 47.0288 34.7049C47.2047 34.712 47.3283 34.7333 47.3997 34.7688C47.4941 34.8048 47.5819 34.8528 47.663 34.913C47.9075 35.1051 48.0872 35.3537 48.2021 35.6588C48.4385 36.3666 48.3668 36.9659 47.987 37.4565C47.84 37.6479 47.6296 37.7785 47.3558 37.8483C47.1598 37.9054 46.817 37.9131 46.3272 37.8716L44.4294 39.2509L43.3772 37.8012Z" fill="#FDBD99"/>
<path d="M47.4233 34.8096L47.3062 34.9149C47.0636 35.124 46.8589 35.3405 46.6921 35.5645C46.6393 35.6397 46.5949 35.7165 46.5589 35.795L46.5128 35.9144L46.4825 36.0368L46.4695 36.1628C46.4686 36.375 46.5293 36.5993 46.6516 36.8359C46.8048 37.1312 47.0317 37.4772 47.3325 37.8739L47.9806 36.7256L47.4233 34.8096Z" fill="#FDBD99"/>
<path d="M28.4332 60.4171L30.4452 65.8432L27.0387 67.7617L27.5882 60.4624L28.3531 60.4166M28.5207 31.2934L28.5207 31.2935L28.7536 33.2967L29.4557 39.3392L30.2786 48.8368C29.3996 49.0504 29.0982 49.6674 25.5544 49.5794L22.2406 49.6878L20.0767 49.1793L22.3632 59.2335C22.8208 64.8413 22.9828 69.1139 22.8496 72.0515L22.1173 72.4227C23.1356 75.6834 24.3028 76.3523 24.6229 77.7932C25.1741 78.3523 25.7435 79.9477 27.3272 79.215C27.8451 77.6917 27.7514 75.9947 27.0459 74.1241L27.8801 73.1039L34.4536 68.1814L35.4336 66.8641C35.8301 66.3911 35.5684 61.9173 34.6487 53.4427L36.7856 52.6522L33.8958 40.2C34.0156 40.139 35.2273 41.2023 37.5308 43.39L38.8759 43.7318C42.8215 41.26 45.0654 39.7059 45.6075 39.0695L44.7739 38.0642L43.784 36.717L39.1199 40.0725C37.2057 38.9297 35.3455 36.3123 33.5395 32.2203C30.6402 31.4285 28.9851 30.9942 28.5745 30.917L28.5207 31.2934Z" fill="#0E0701"/>
<path d="M24.7354 48.4298C24.0152 47.9176 23.4563 47.6 23.0586 47.477C22.6501 47.3315 22.1938 47.3069 21.6897 47.4033C21.371 47.4573 20.8954 47.5989 20.263 47.8283L19.0483 47.9349L18.6196 49.5525L21.0859 50.5793L23.5861 50.6984L24.6325 49.7197L24.7351 48.4332L24.7354 48.4298Z" fill="#FDBD99"/>
<path d="M21.2976 47.1776C21.3774 47.2301 21.1454 47.3776 20.6015 47.6202L21.188 47.3207L20.0654 47.8458L19.0482 47.9351L19.0461 47.943L18.7995 47.9405L18.4097 47.8287L18.8225 47.4023L17.9066 46.8115L17.9064 46.8116C17.6654 47.0825 17.4076 47.47 17.1331 47.9743L18.3076 48.4808L24.7263 48.871L24.7212 48.4689L24.2374 47.5294C23.9355 47.6338 23.8309 47.6987 23.9234 47.7241C22.9992 47.4397 22.407 47.1251 22.1466 46.7803L21.7063 47.0219L21.2976 47.1776Z" fill="#7D3507" fill-opacity="0.0745098"/>
<path d="M54.5176 38.0561L54.2184 37.7153C53.3197 36.6881 52.6517 35.9967 52.2145 35.6411C51.6616 35.1766 51.2121 34.9495 50.8659 34.9598C50.6901 34.9669 50.5665 34.9882 50.495 35.0237C50.4007 35.0596 50.3129 35.1077 50.2318 35.1678C49.9873 35.3599 49.8076 35.6085 49.6927 35.9136C49.4563 36.6215 49.528 37.2207 49.9078 37.7114C50.0548 37.9028 50.2652 38.0334 50.539 38.1032C50.7349 38.1603 51.0778 38.168 51.5676 38.1265L53.4654 39.5058L54.5176 38.0561Z" fill="#FDBD99"/>
<path d="M71.4076 21.4458C71.8875 21.4101 72.3109 21.472 72.6777 21.6315C72.8519 21.7017 73.0579 21.8039 73.2957 21.9381C74.2047 22.4536 74.7148 22.7549 74.826 22.842C75.6272 23.3593 76.0827 23.9605 76.1925 24.6457C76.3642 25.6095 76.1265 26.6759 75.4794 27.8449C74.9745 28.7802 74.1836 29.5121 73.1067 30.0407L69.6491 23.7809L69.2873 22.8814C68.9774 22.6727 68.8176 22.5039 68.8077 22.375C68.7769 22.1596 68.9481 21.9863 69.3212 21.8551C70.0308 21.6431 70.7235 21.5068 71.3993 21.4463L71.4076 21.4458Z" fill="black"/>
<path d="M69.5691 23.2603L69.9738 23.3129L71.2749 23.8206C71.1978 24.1923 71.2308 24.4357 71.3738 24.5506C71.4285 24.6019 71.498 24.643 71.5822 24.6739C72.0647 24.8044 72.3367 24.8919 72.3982 24.9362C72.5575 25.0162 72.6738 25.1144 72.7469 25.231C72.8529 25.3827 72.894 25.6234 72.87 25.9531C72.8751 26.1354 72.7592 26.7199 72.5223 27.7067C72.4959 27.8748 72.5063 27.9763 72.5535 28.0112C72.6075 28.0669 72.7644 27.9862 73.0243 27.7692C72.9847 27.3031 73.096 27.0298 73.358 26.9495C73.5921 26.8665 73.8311 26.8546 74.0752 26.9136C74.302 26.9788 74.4335 27.0915 74.4698 27.2518C74.559 27.4841 74.3494 28.0478 73.841 28.943C74.124 29.0544 74.256 29.1509 74.2369 29.2325C74.2516 29.3027 74.1717 29.4488 73.9973 29.6708L73.7023 30.6979L73.9289 31.3743L71.8675 33.6258L69.3535 31.7148L69.4774 30.4926C69.4051 30.6149 68.8866 30.6378 67.922 30.5615C67.5668 30.5198 67.3703 30.3946 67.3325 30.1861L67.2591 29.514L67.3768 28.6387L67.7484 27.6667C67.185 27.4615 66.9054 27.1828 66.9095 26.8304C66.9207 26.7874 66.959 26.7486 67.0243 26.714C67.1438 26.6908 67.3521 26.6098 67.6493 26.471C67.9113 26.2263 68.092 26.0348 68.1914 25.8964C68.3072 25.7406 68.3932 25.5729 68.4495 25.3932C68.4965 25.2729 68.5518 24.9885 68.6155 24.54C68.6406 24.4371 68.676 24.3425 68.7218 24.2562C68.8179 24.0569 69.0971 23.7283 69.5592 23.2702L69.5691 23.2603Z" fill="#FDBD99"/>
<path d="M69.269 31.1976L71.796 31.9781L73.9705 31.1016L76.9348 33.07L77.1408 45.01L74.3563 52.5089L69.7451 53.1847L63.873 50.1904L65.4967 37.2268L67.9183 32.3621L69.2635 31.2022L69.269 31.1976Z" fill="white"/>
<path d="M78.3367 48.2032L79.0952 48.1955L80.0065 47.9341L81.419 49.6755L80.5732 49.6989L80.1915 49.529L78.6643 49.987L78.3367 48.2039L78.3367 48.2032Z" fill="white"/>
<path d="M69.4616 60.6719L67.4496 66.0981L70.8561 68.0166L70.3066 60.7173L69.5417 60.6714M69.3741 31.5482L69.3741 31.5484L69.1412 33.5516L68.4391 39.5941L67.6162 49.0917C68.4952 49.3053 68.7966 49.9223 72.3404 49.8343L75.6541 49.9427L77.8181 49.4341L75.5316 59.4884C75.074 65.0961 74.912 69.3688 75.0452 72.3064L75.7775 72.6776C74.7592 75.9383 74.0901 78.2892 73.77 79.7302C73.2188 80.2893 72.1513 80.2026 70.5676 79.4699C70.0497 77.9466 70.1434 76.2496 70.8489 74.379L70.0147 73.3588L63.4412 68.4363L62.4612 67.119C62.0647 66.646 62.3264 62.1722 63.2462 53.6976L61.1092 52.9071L63.999 40.4549C63.8792 40.3939 62.6675 41.4572 60.3641 43.6449L59.0189 43.9867C55.0733 41.5149 52.8294 39.9608 52.2874 39.3243L53.1209 38.319L54.1108 36.9719L58.7749 40.3273C60.6891 39.1845 62.5493 36.5672 64.3553 32.4752C67.2546 31.6834 68.9097 31.249 69.3203 31.1719L69.3741 31.5482Z" fill="#0E0701"/>
<path d="M73.849 31.0684L75.1232 31.722L80.0731 33.2796L81.8669 35.8435L85.1466 38.9721L86.6073 40.6533C86.8163 41.0822 86.9307 41.4705 86.9685 41.8163C87.048 42.5419 86.7041 43.4543 85.9486 44.5721C85.2061 45.6703 83.7018 47.5079 81.406 50.0685L79.0722 47.6572L80.4536 46.7661L82.1445 44.8975L83.7056 42.4981L80.3257 39.2203L79.5218 38.3766L77.7097 48.7879L75.3104 48.4718L72.6584 50.7502L73.3846 41.6249L73.6048 36.6536L73.8513 31.0916L73.849 31.0684Z" fill="#0E0701"/>
<path d="M69.4061 60.4478L69.8381 60.6696L69.4616 60.6719L69.4593 60.6782L68.3665 63.6255L69.4042 60.4531L69.4061 60.4478Z" fill="#0E0701"/>
<path d="M70.3218 60.918L70.5032 61.0113L70.7943 67.196L70.3218 60.918Z" fill="#0E0701"/>
<path d="M69.8237 67.4653L70.8332 68.0202L70.8405 68.1779L69.8237 67.4653Z" fill="#0E0701"/>
<path d="M70.0829 58.2212L70.9816 68.7861L69.4567 60.1989C68.5148 63.1697 67.9343 64.9947 67.7152 65.6741C67.3827 66.7105 67.2101 67.2335 67.1975 67.2432C67.1845 67.2519 67.3523 66.6753 67.7009 65.5133C67.9428 64.7043 68.5086 62.834 69.3983 59.9025L69.4025 59.8932L69.4587 60.1916L70.0817 58.2253L70.0829 58.2212Z" fill="#0E0701"/>
<path d="M73.1594 48.6847C73.8795 48.1725 74.4385 47.8549 74.8362 47.7319C75.2447 47.5864 75.701 47.5618 76.205 47.6582C76.5238 47.7122 76.9994 47.8538 77.6318 48.0831L78.8465 48.1898L79.2751 49.8074L76.8088 50.8342L74.3087 50.9533L73.2622 49.9746L73.1597 48.6881L73.1594 48.6847Z" fill="#FDBD99"/>
<path d="M71.4847 32.2217L72.0939 33.0339L71.5781 33.6577L70.8388 47.4718L69.6585 48.8975L68.22 47.9117L70.8846 33.6425L70.6882 32.7795L71.4771 32.227L71.4847 32.2217Z" fill="#0E0701"/>
<path d="M75.5433 72.6742C77.0285 72.5931 77.8718 72.5679 78.0732 72.5985L78.2354 74.2822L77.3111 74.4181C77.5175 75.4695 77.711 76.2245 77.8916 76.683C77.9763 76.9072 78.0668 77.1076 78.1632 77.2843L78.7729 78.3132C78.8479 78.4582 78.902 78.5975 78.9352 78.7309C79.0343 79.054 78.9486 79.4628 78.678 79.9574C78.6967 79.9965 78.2141 80.7054 77.2302 82.0842C77.0678 82.2887 76.8853 82.3293 76.6826 82.2059C76.4694 82.057 76.3512 81.8587 76.3281 81.6111C76.3218 81.5335 76.3318 81.4373 76.3581 81.3226C76.5135 80.8313 76.5889 80.5534 76.5844 80.489C76.6078 80.3231 76.598 80.1438 76.555 79.9511C76.506 79.65 76.2553 79.0819 75.8029 78.2467C75.6293 77.9489 75.4425 77.7391 75.2425 77.617C75.1639 77.5655 75.076 77.5162 74.9788 77.4692C74.5379 77.2762 74.2684 77.1514 74.1704 77.0949C73.9802 76.9959 73.7212 76.8476 73.3933 76.65L75.5394 72.6815L75.5433 72.6742Z" fill="#0E0701"/>
<path d="M71.1649 78.1582L73.2117 79.6722C73.4735 80.2567 73.6577 80.9374 73.7644 81.7141C73.8815 82.5663 73.8874 83.2225 73.782 83.6826C73.6491 84.3362 73.1853 84.7794 72.3907 85.0119C71.9117 85.151 71.4837 85.1905 71.1066 85.1305C70.8078 85.0801 70.6033 84.9304 70.4933 84.6814C70.3161 84.3538 70.2902 83.6113 70.4157 82.4539C70.4667 81.9412 70.5747 81.1206 70.7396 79.9922L71.1646 78.1595L71.1649 78.1582Z" fill="#0E0701"/>
<path d="M77.5263 50.6777L77.6737 52.8093L77.6182 54.7301L73.502 54.3309L77.5225 50.6813L77.5263 50.6777Z" fill="#0E0701"/>
<path d="M76.5971 47.4325C76.5173 47.485 76.7493 47.6325 77.2932 47.8751L76.7067 47.5756L77.8293 48.1007L78.8465 48.19L78.8486 48.1979L79.0952 48.1954L79.485 48.0836L79.0722 47.6572L79.9881 47.0664L79.9883 47.0665C80.2294 47.3374 80.4871 47.7249 80.7617 48.2292L79.5871 48.7357L73.1685 49.1258L73.1735 48.7238L73.6573 47.7843C73.9592 47.8887 74.0639 47.9536 73.9713 47.979C74.8955 47.6946 75.4877 47.38 75.7481 47.0352L76.1885 47.2768L76.5971 47.4325Z" fill="#7D3507" fill-opacity="0.0745098"/>
<path d="M69.16 25.4512V25.4513L69.0732 25.8083C69.3148 25.8174 69.5564 25.8265 69.7979 25.8356L69.16 25.4512Z" fill="white" fill-opacity="0.996078"/>
<path d="M69.1724 25.4492L69.1595 25.4617C69.133 25.4865 69.1096 25.5122 69.0894 25.5387C69.0741 25.5613 69.0659 25.5751 69.0646 25.5801C69.0603 25.5895 69.0569 25.5992 69.0544 25.6092C69.052 25.6193 69.0505 25.6296 69.05 25.6401L69.0498 25.6561C69.0501 25.6668 69.051 25.6777 69.0527 25.6889C69.0565 25.7166 69.0671 25.7568 69.0845 25.8095L69.2728 25.6726L69.1724 25.4492Z" fill="black" fill-opacity="0.996078"/>
<path d="M69.2063 25.1846L69.2538 25.188C69.3497 25.1944 69.4414 25.2035 69.5288 25.2152C69.6243 25.2301 69.6928 25.2457 69.7342 25.2619C69.7797 25.2772 69.8273 25.3008 69.8769 25.3327C69.8851 25.3372 69.9066 25.3529 69.9414 25.3796C69.9622 25.3958 69.9946 25.424 70.0387 25.4643L69.2063 25.1846Z" fill="#863608" fill-opacity="0.996078"/>
<path d="M70.0579 24.2446V24.2453L70.0576 24.2458L70.0579 24.2446Z" fill="#863608" fill-opacity="0.996078"/>
<path d="M67.4883 28.3477L67.4209 28.5239C67.6796 28.525 68.0368 28.5143 68.4924 28.492C68.2139 28.4722 68.0067 28.4524 67.8707 28.4326C67.7368 28.4114 67.6593 28.3973 67.6383 28.3904C67.5902 28.3792 67.5452 28.3666 67.5032 28.3526C67.499 28.3512 67.4949 28.3497 67.4908 28.3483C67.4902 28.3481 67.4897 28.3479 67.4891 28.3477L67.4883 28.3477Z" fill="white" fill-opacity="0.996078"/>
<path d="M50.4714 35.0645L50.5885 35.1698C50.8311 35.3788 51.0358 35.5954 51.2026 35.8194C51.2554 35.8946 51.2998 35.9714 51.3358 36.0499L51.3819 36.1693L51.4122 36.2917L51.4252 36.4176C51.4261 36.6299 51.3654 36.8542 51.2431 37.0908C51.0899 37.3861 50.863 37.7321 50.5622 38.1288L49.9141 36.9805L50.4714 35.0645Z" fill="#FDBD99"/>
<path d="M50.8721 35.7273C50.8721 35.7273 53.0945 33.3038 52.8167 31.7383C52.745 31.3361 49.887 35.1985 50.8721 35.7273Z" fill="#4A6C25"/>
<path d="M50.8719 35.7269C50.8719 35.7269 48.9261 34.2096 49.0009 32.6392C49.0285 32.0614 51.868 35.2156 50.8719 35.7269Z" fill="#4A6C25"/>
<path d="M50.7546 30.2305L51.1002 30.2336L51.0414 35.7287L50.6958 35.7258L50.7546 30.2305ZM50.7546 30.2305L51.1002 30.2336L51.0414 35.7287L50.6958 35.7258L50.7546 30.2305ZM50.7546 30.2305L51.1002 30.2336L51.0414 35.7287L50.6958 35.7258L50.7546 30.2305ZM50.7546 30.2305L51.1002 30.2336L51.0414 35.7287L50.6958 35.7258L50.7546 30.2305Z" fill="#4A6C25"/>
<path d="M52.6578 28.7159C52.2917 28.3766 50.5795 28.3104 50.848 30.3341C53.042 30.592 53.0237 29.0549 52.6578 28.7159Z" fill="#D3093A"/>
<path d="M51.5594 32.2678C52.0656 32.1491 52.9848 30.8347 50.9219 30.0342C49.5793 31.6317 51.0531 32.3862 51.5594 32.2678Z" fill="#D3093A"/>
<path d="M48.633 30.6982C48.4928 31.1558 49.2858 32.5364 51.0801 31.3132C50.2289 29.4578 48.7731 30.2406 48.633 30.6982Z" fill="#D3093A"/>
<path d="M50.3319 28.1986C49.8257 28.317 48.9064 29.6314 50.9693 30.4319C52.3119 28.8344 50.8381 28.08 50.3319 28.1986Z" fill="#FF003E"/>
<path d="M53.1675 30.8388C53.3077 30.3814 52.5149 29.0005 50.7205 30.2237C51.5718 32.0791 53.0274 31.2966 53.1675 30.8388Z" fill="#FF003E"/>
<path d="M49.2333 31.7503C49.5993 32.0896 51.3118 32.1557 51.0431 30.132C48.8493 29.8741 48.8673 31.4112 49.2333 31.7503Z" fill="#FF003E"/>
<path d="M50.9206 30.8619C50.5382 30.8586 50.2302 30.5732 50.2339 30.2256C50.2376 29.8781 50.5517 29.5982 50.9341 29.6016C51.3164 29.605 51.6244 29.8904 51.6207 30.2379C51.6169 30.5854 51.3029 30.8653 50.9206 30.8619Z" fill="#FFCE54"/>
<path d="M51.7906 30.3953C51.8863 30.3961 51.9642 30.3267 51.9652 30.2399C51.9661 30.1532 51.8896 30.0822 51.794 30.0814C51.7884 30.0813 51.7833 30.0815 51.7778 30.0819C51.771 30.0499 51.7617 30.0183 51.7509 29.9878C51.756 29.9858 51.7606 29.9836 51.7657 29.9811C51.8486 29.9383 51.878 29.8427 51.8312 29.767C51.7842 29.6916 51.679 29.6649 51.5957 29.7074C51.5909 29.7102 51.5858 29.7129 51.5812 29.7158C51.558 29.6915 51.5331 29.6682 51.5065 29.6466C51.5099 29.6425 51.513 29.6382 51.5158 29.6336C51.5644 29.5588 51.5371 29.4627 51.4548 29.4187C51.3728 29.3745 51.2667 29.3993 51.2183 29.4738C51.2152 29.4784 51.2127 29.483 51.2103 29.4878C51.1769 29.4774 51.1427 29.4684 51.1075 29.4616C51.1082 29.4566 51.1085 29.4515 51.1085 29.4462C51.1095 29.3595 51.0329 29.2884 50.9375 29.2876C50.8421 29.2868 50.7639 29.3565 50.763 29.4431C50.7629 29.4484 50.7632 29.4535 50.7637 29.4586C50.7284 29.4647 50.6939 29.4731 50.6603 29.4829C50.6581 29.4781 50.6555 29.4735 50.6526 29.4688C50.6057 29.3934 50.5003 29.3668 50.4172 29.4093C50.3341 29.452 50.3048 29.5477 50.3516 29.6233C50.3545 29.6279 50.3576 29.6323 50.3609 29.6365C50.3339 29.6576 50.3084 29.6804 50.2846 29.7044C50.2799 29.7013 50.2753 29.6985 50.2703 29.6957C50.1881 29.6518 50.0821 29.6766 50.0336 29.7511C49.9851 29.8259 50.0124 29.9221 50.0946 29.9663C50.0994 29.9689 50.1043 29.9712 50.1092 29.9733C50.0976 30.0038 50.0878 30.035 50.0803 30.0669C50.0749 30.0664 50.0695 30.0661 50.064 30.066C49.9686 30.0652 49.8906 30.1349 49.8897 30.2216C49.8887 30.3083 49.9653 30.3791 50.0607 30.38C50.066 30.38 50.0713 30.3798 50.0765 30.3794C50.0833 30.4117 50.0923 30.4433 50.1032 30.474C50.0985 30.476 50.0937 30.478 50.0891 30.4803C50.006 30.523 49.9766 30.6187 50.0235 30.6943C50.0704 30.7697 50.1758 30.7964 50.2589 30.7539C50.2635 30.7514 50.2678 30.7489 50.2722 30.7462C50.2955 30.771 50.3206 30.7942 50.3473 30.8161C50.3443 30.82 50.3414 30.8238 50.3387 30.8277C50.2902 30.9025 50.3175 30.9987 50.3997 31.0428C50.4819 31.0869 50.5878 31.062 50.6363 30.9875C50.6389 30.9836 50.6412 30.9795 50.6433 30.9753C50.6771 30.986 50.7115 30.995 50.747 31.0018C50.7466 31.0062 50.7462 31.0107 50.7461 31.0151C50.7452 31.102 50.8219 31.1729 50.9173 31.1737C51.0127 31.1746 51.0908 31.1051 51.0917 31.0182C51.0917 31.0138 51.0914 31.0092 51.0911 31.0048C51.1267 30.9987 51.1615 30.9903 51.1954 30.9802C51.1976 30.9844 51.1996 30.9885 51.2021 30.9925C51.2488 31.0679 51.3544 31.0946 51.4373 31.0521C51.5205 31.0093 51.5499 30.9136 51.5029 30.838C51.5004 30.8341 51.4977 30.8302 51.4949 30.8262C51.522 30.8049 51.5475 30.7821 51.5716 30.7579C51.5756 30.7605 51.5799 30.7631 51.5844 30.7656C51.6667 30.8096 51.7725 30.7848 51.8211 30.7102C51.8696 30.6354 51.8422 30.5393 51.7602 30.495C51.7556 30.4927 51.7509 30.4906 51.7461 30.4885C51.7578 30.458 51.7675 30.4265 51.7749 30.3944C51.78 30.3949 51.7853 30.3952 51.7906 30.3953ZM50.9223 30.7048C50.6352 30.7023 50.404 30.4881 50.4068 30.2271C50.4096 29.9663 50.6453 29.7561 50.9324 29.7586C51.2193 29.7612 51.4509 29.9755 51.4481 30.2363C51.4453 30.4973 51.2092 30.7073 50.9223 30.7048Z" fill="#F6BB42"/>
<path d="M50.927 30.0864C50.8314 30.0856 50.7534 30.1551 50.7524 30.2418C50.7515 30.3285 50.8281 30.3996 50.9236 30.4004C51.019 30.4012 51.0971 30.3316 51.098 30.2448C51.0989 30.1581 51.0224 30.0873 50.927 30.0864Z" fill="#F6BB42"/>
<path d="M50.8657 37.3813L50.9825 37.3824L51.0993 37.3834C51.0924 38.0297 51.0854 38.676 51.0785 39.3223C51.0007 39.3216 50.9228 39.3209 50.845 39.3202C50.8519 38.6739 50.8588 38.0276 50.8657 37.3813Z" fill="#4A6C25"/>
</g>
<defs>
<clipPath id="clip0_510_1940">
<rect width="98" height="98" fill="white"/>
</clipPath>
</defs>
</svg>
