<svg width="94" height="83" viewBox="0 0 94 83" fill="none" xmlns="http://www.w3.org/2000/svg">
<path d="M88.8835 27.5536L88.6939 30.3773C87.7951 36.0661 85.165 40.616 80.8038 44.0268C76.4125 47.4348 71.2414 48.8168 65.2904 48.1726C59.6111 47.2723 55.0689 44.6379 51.6638 40.2694C50.5727 38.8573 49.6741 37.3186 48.9677 35.6534L48.0773 33.0855C47.5881 31.3185 47.3407 29.4745 47.3352 27.5536C47.4837 21.6586 49.5119 16.7539 53.4198 12.8394C57.3277 8.92499 62.2242 6.89339 68.1094 6.74463C73.9945 6.89339 78.891 8.92499 82.7989 12.8394C86.7068 16.7539 88.735 21.6586 88.8835 27.5536Z" fill="#88AB8E" fill-opacity="0.5"/>
<path d="M93.2191 76.0019L92.7936 76.1037C90.7769 76.3088 84.8761 76.4729 75.0912 76.5959C65.2386 76.7188 53.6365 76.7687 40.2849 76.7454C27.5425 76.713 17.3514 76.618 9.71168 76.4604C7.26382 76.4095 5.24753 76.354 3.66281 76.294L1.66494 76.2014C0.56732 76.1376 0.0123413 76.0711 0 76.0019C0.333205 75.7893 4.88374 75.6124 13.6516 75.4713C22.4195 75.3301 33.4055 75.2568 46.6095 75.2515C59.8136 75.2568 70.7996 75.3301 79.5675 75.4713C88.3353 75.6124 92.8859 75.7893 93.2191 76.0019Z" fill="black" fill-opacity="0.317647"/>
<path d="M71.01 34.3674C71.2799 34.7411 71.6577 35.0245 72.0584 35.2516C72.4591 35.4788 72.8862 35.6547 73.3021 35.8525C73.4725 35.9336 73.642 36.0187 73.8221 36.0749C74.0023 36.131 74.1958 36.1572 74.3802 36.1175C74.5247 36.0865 74.659 36.0158 74.775 35.924C74.891 35.8323 74.9893 35.7198 75.0759 35.5998C75.2328 35.3822 75.3523 35.1393 75.5094 34.9218C75.934 34.3341 76.6399 33.9603 77.364 33.9399C78.1675 33.9945 78.9487 34.3369 79.5341 34.891C79.8211 35.1628 80.0599 35.4807 80.3138 35.7838C80.5677 36.0869 80.8426 36.3804 81.1809 36.5848C81.4973 36.7759 81.8566 36.8816 82.2123 36.9817C82.4284 37.0426 82.6458 37.1023 82.8685 37.1314C83.0912 37.1605 83.3206 37.1583 83.5366 37.0966C83.9165 36.9882 84.2366 36.6883 84.3701 36.3159C84.3242 35.0189 83.8537 33.7406 83.0482 32.724C81.9538 31.3426 80.2738 30.4828 78.5307 30.2353C76.7875 29.9878 74.9905 30.3234 73.3755 31.0258C72.3787 31.4595 71.4419 32.0314 70.6003 32.7203C70.5206 33.2946 70.6706 33.8976 71.0099 34.3673L71.01 34.3674Z" fill="#62686D"/>
<path d="M72.0584 35.2516C72.339 35.4107 72.6329 35.5448 72.9265 35.6787C73.052 35.7359 73.1776 35.7933 73.3021 35.8525C73.3201 35.861 73.3441 35.8725 73.3621 35.8811C73.382 35.8906 73.4022 35.9004 73.4221 35.9098C73.5527 35.9719 73.6843 36.0319 73.8221 36.0749C74.0023 36.1309 74.1958 36.1572 74.3802 36.1175C74.5247 36.0864 74.659 36.0158 74.775 35.924C74.891 35.8322 74.9893 35.7198 75.0759 35.5998C75.1542 35.4911 75.2232 35.3764 75.2922 35.2615C75.3612 35.1465 75.4301 35.0317 75.5085 34.9231L75.5094 34.9218C75.934 34.334 76.6399 33.9603 77.364 33.9399C78.1675 33.9944 78.9487 34.3368 79.5341 34.891C79.752 35.0973 79.9422 35.3304 80.1322 35.5633C80.192 35.6366 80.2531 35.7114 80.3138 35.7838C80.5676 36.0868 80.8427 36.3804 81.1809 36.5848C81.4973 36.7758 81.8566 36.8816 82.2123 36.9817C82.4284 37.0426 82.6458 37.1023 82.8685 37.1314C83.0911 37.1605 83.3206 37.1583 83.5366 37.0966C83.9165 36.9881 84.2366 36.6883 84.3701 36.3159C84.3242 35.0189 83.8537 33.7406 83.0482 32.724C81.9538 31.3426 80.2738 30.4828 78.5307 30.2353C80.2738 30.4827 81.9538 31.3426 83.0482 32.724C83.8537 33.7405 84.3242 35.0189 84.3701 36.3159C84.2366 36.6883 83.9165 36.9881 83.5366 37.0966C83.3206 37.1583 83.0911 37.1605 82.8685 37.1314C82.6458 37.1023 82.4284 37.0426 82.2123 36.9817C81.8566 36.8815 81.4973 36.7759 81.1809 36.5848C80.8427 36.3804 80.5676 36.0868 80.3138 35.7838C80.2531 35.7113 80.192 35.6366 80.1322 35.5633C79.9422 35.3304 79.752 35.0973 79.5341 34.891C78.9487 34.3368 78.1675 33.9944 77.364 33.9399C76.6399 33.9602 75.934 34.3341 75.5094 34.9218L75.5085 34.9231C75.4301 35.0317 75.3612 35.1465 75.2922 35.2615C75.2232 35.3764 75.1542 35.4911 75.0759 35.5998C74.9893 35.7198 74.891 35.8322 74.775 35.924C74.659 36.0158 74.5247 36.0864 74.3802 36.1175C74.1958 36.1571 74.0023 36.131 73.8221 36.0749C73.6843 36.0318 73.5527 35.9719 73.4221 35.9098C73.4022 35.9003 73.382 35.8907 73.3621 35.8811C73.3441 35.8725 73.3201 35.8611 73.3021 35.8525C73.1776 35.7933 73.052 35.7359 72.9265 35.6787C72.6329 35.5447 72.339 35.4107 72.0584 35.2516Z" fill="#62686D"/>
<path d="M53.098 35.3308C53.4924 34.8826 53.9699 34.5081 54.4988 34.232C55.0219 33.9589 55.5995 33.7815 56.1888 33.7566C56.4474 33.7457 56.7071 33.7639 56.9616 33.8111C57.5535 33.9208 58.1072 34.1842 58.6214 34.4976C59.1357 34.811 59.6167 35.1756 60.1173 35.5103C60.4295 35.719 60.7611 35.9206 61.1321 35.9768C61.2642 35.9968 61.3991 35.9978 61.5316 35.9808C62.0182 35.9186 62.4383 35.6248 62.8788 35.4086C63.5124 35.0976 64.2201 34.9396 64.9256 34.9516C65.0323 35.4618 65.3263 35.9306 65.7389 36.2484C66.1522 36.5668 66.6666 36.7287 67.1818 36.8095C67.6618 36.8849 68.1644 36.8929 68.6217 36.7285C69.0822 36.5629 69.4772 36.2213 69.708 35.7891C69.6451 35.9448 69.6299 36.1194 69.6647 36.2837C69.6996 36.448 69.7844 36.6013 69.9051 36.7179C70.1506 36.6081 70.3291 36.3892 70.4789 36.1655C70.7878 35.704 71.0151 35.1906 71.1809 34.6604C71.3393 34.154 71.4445 33.6267 71.6798 33.1513C71.7703 32.9685 71.8814 32.7926 72.0336 32.6571C72.2428 32.4709 72.5194 32.3697 72.7155 32.1696C72.9158 31.9651 73.0114 31.6726 73.0134 31.3861C73.0154 31.0996 72.9305 30.8182 72.8099 30.5584C72.3842 29.6417 71.5138 28.9776 70.5543 28.6636C69.5949 28.3496 68.5536 28.3588 67.5596 28.5344C65.5716 28.8856 63.7382 29.8764 61.748 30.2133C60.1821 30.4784 58.5754 30.3292 56.9951 30.4874C56.2049 30.5665 55.4164 30.7245 54.6873 31.0399C53.9583 31.3552 53.289 31.835 52.823 32.479C52.269 33.2449 52.0275 34.2307 52.1646 35.1664L53.098 35.3308Z" fill="#62686D"/>
<path d="M54.4987 34.232C55.0218 33.9589 55.5995 33.7815 56.1888 33.7566C56.4474 33.7456 56.7071 33.7639 56.9616 33.8111C57.5535 33.9207 58.1072 34.1842 58.6214 34.4976C58.9457 34.6951 59.2568 34.9132 59.5679 35.1312C59.7502 35.2589 59.9324 35.3867 60.1173 35.5103C60.4295 35.7189 60.761 35.9206 61.1321 35.9768C61.2642 35.9967 61.3991 35.9978 61.5316 35.9808C61.8972 35.934 62.2252 35.7566 62.5525 35.5796C62.6609 35.5209 62.7692 35.4624 62.8788 35.4086C63.5124 35.0975 64.2201 34.9396 64.9256 34.9516C65.0323 35.4618 65.3263 35.9306 65.7389 36.2484C66.1522 36.5667 66.6666 36.7287 67.1817 36.8095C67.6617 36.8848 68.1644 36.8929 68.6217 36.7285C69.0822 36.5628 69.4772 36.2213 69.708 35.7891C69.6451 35.9448 69.6299 36.1194 69.6647 36.2837C69.6996 36.4479 69.7844 36.6012 69.9051 36.7179C70.1506 36.608 70.3291 36.3892 70.4789 36.1655C70.7878 35.7039 71.0151 35.1906 71.1809 34.6604C71.2269 34.5133 71.2683 34.3651 71.3098 34.2163C71.3512 34.0677 71.3927 33.919 71.4386 33.7723C71.5051 33.5597 71.581 33.3509 71.6798 33.1513C71.7703 32.9685 71.8814 32.7926 72.0336 32.6571C72.1298 32.5714 72.2403 32.5038 72.3507 32.4362C72.4608 32.3687 72.5708 32.3014 72.6663 32.2164C72.6832 32.2013 72.6995 32.1858 72.7155 32.1696C72.9158 31.965 73.0114 31.6726 73.0134 31.3861C73.0154 31.0995 72.9305 30.8182 72.8099 30.5584C72.3842 29.6416 71.5138 28.9776 70.5543 28.6636C69.5949 28.3495 68.5536 28.3588 67.5596 28.5344C66.5762 28.7081 65.6309 29.0383 64.6855 29.3685C63.7405 29.6984 62.7955 30.0285 61.8131 30.2021C61.7923 30.2057 61.7688 30.2098 61.748 30.2133C60.849 30.3654 59.9365 30.3811 59.0233 30.3968C58.3459 30.4084 57.6681 30.42 56.9951 30.4874C56.2049 30.5664 55.4164 30.7245 54.6873 31.0398C55.4164 30.7244 56.2049 30.5665 56.9951 30.4874C57.6681 30.42 58.3459 30.4084 59.0233 30.3968C59.9365 30.3811 60.849 30.3655 61.748 30.2133C61.7688 30.2098 61.7923 30.2057 61.8131 30.2021C62.7955 30.0285 63.7405 29.6984 64.6855 29.3685C65.6309 29.0383 66.5762 28.7081 67.5596 28.5344C68.5536 28.3588 69.5949 28.3495 70.5543 28.6636C71.5138 28.9776 72.3842 29.6416 72.8099 30.5584C72.9305 30.8181 73.0154 31.0996 73.0134 31.3861C73.0114 31.6726 72.9158 31.965 72.7155 32.1696C72.6995 32.1858 72.6832 32.2013 72.6663 32.2164C72.5708 32.3013 72.4608 32.3688 72.3507 32.4362C72.2403 32.5037 72.1298 32.5714 72.0336 32.6571C71.8814 32.7926 71.7703 32.9685 71.6798 33.1513C71.581 33.3509 71.5051 33.5597 71.4386 33.7723C71.3927 33.919 71.3512 34.0677 71.3098 34.2163C71.2683 34.365 71.2269 34.5134 71.1809 34.6604C71.0151 35.1906 70.7878 35.704 70.4789 36.1655C70.3291 36.3892 70.1506 36.608 69.9051 36.7179C69.7844 36.6012 69.6996 36.4479 69.6647 36.2837C69.6299 36.1194 69.6451 35.9448 69.708 35.7891C69.4772 36.2213 69.0822 36.5629 68.6217 36.7285C68.1644 36.8928 67.6617 36.8849 67.1817 36.8095C66.6666 36.7286 66.1522 36.5668 65.7389 36.2484C65.3263 35.9306 65.0323 35.4618 64.9256 34.9516C64.2201 34.9395 63.5124 35.0976 62.8788 35.4086C62.7692 35.4624 62.6609 35.5209 62.5525 35.5796C62.2252 35.7566 61.8972 35.934 61.5316 35.9808C61.3991 35.9978 61.2642 35.9967 61.1321 35.9768C60.761 35.9206 60.4295 35.7189 60.1173 35.5103C59.9324 35.3867 59.7502 35.2589 59.5679 35.1312C59.2568 34.9132 58.9457 34.6951 58.6214 34.4976C58.1072 34.1842 57.5535 33.9208 56.9616 33.8111C56.7071 33.7639 56.4474 33.7456 56.1888 33.7566C55.5995 33.7815 55.0218 33.9589 54.4987 34.232Z" fill="#62686D"/>
<path d="M67.9883 11.1519C66.9365 11.257 65.891 11.5772 65.0285 12.1893C63.8876 12.9989 63.1449 14.2529 62.5549 15.5227C61.8408 17.0596 61.2989 18.6797 60.9898 20.3464C60.7809 21.4728 60.673 22.6368 60.2046 23.682C59.7507 24.6951 58.9803 25.538 58.1215 26.2403C56.976 27.1771 55.6573 27.8938 54.567 28.8946C53.7212 29.6709 53.019 30.6234 52.6352 31.7064C52.2093 32.9085 52.1939 34.2524 52.5921 35.4639C52.9881 34.6653 53.575 33.9624 54.2896 33.4305C54.4768 33.2912 54.6746 33.1624 54.8929 33.0801C55.1112 32.9979 55.3526 32.9642 55.5797 33.0177C55.7421 33.0559 55.8927 33.1377 56.0209 33.2445C56.1492 33.3514 56.2558 33.4827 56.3441 33.6245C56.5207 33.908 56.624 34.2298 56.7377 34.5441C56.8538 34.8651 56.9839 35.1847 57.1781 35.4653C57.3723 35.746 57.6366 35.9877 57.9576 36.1029C58.2996 36.2258 58.6881 36.1948 59.0195 36.0456C59.3509 35.8963 59.6258 35.6346 59.8178 35.3256C60.0126 35.012 60.1255 34.6516 60.3331 34.3464C60.4369 34.1938 60.5655 34.0551 60.7239 33.9607C60.8823 33.8662 61.0725 33.8185 61.2541 33.8507C61.3857 33.8741 61.5083 33.9383 61.6101 34.0251C61.7119 34.1119 61.7935 34.2207 61.8586 34.3376C61.9889 34.5715 62.0534 34.8351 62.1363 35.0897C62.203 35.2946 62.2834 35.4974 62.4058 35.6746C62.5281 35.8518 62.6959 36.0032 62.8985 36.0758C63.149 36.1655 63.435 36.1259 63.6703 36.0016C63.9055 35.8773 64.093 35.6746 64.2319 35.4474C64.5097 34.9929 64.5999 34.4516 64.7854 33.9521C64.9271 33.5703 65.1322 33.2029 65.4385 32.9348C65.5916 32.8007 65.769 32.6932 65.9618 32.6286C66.1547 32.5641 66.3632 32.5433 66.5636 32.578C66.8632 32.63 67.1306 32.8024 67.352 33.0113C67.5733 33.2201 67.7554 33.4663 67.9484 33.7017C68.1305 33.9239 68.3232 34.1377 68.493 34.3695C68.6627 34.6013 68.8101 34.8536 68.8895 35.1299C69.0128 35.5591 68.9667 36.0263 69.1134 36.4482C69.1867 36.6591 69.3125 36.8583 69.4987 36.9812C69.5917 37.0426 69.6989 37.0837 69.8098 37.0948C69.9207 37.1059 70.0353 37.0862 70.1338 37.0338C70.2206 36.9877 70.2935 36.917 70.3474 36.8346C70.4013 36.7522 70.4367 36.6584 70.4563 36.5618C70.4956 36.3688 70.4728 36.1685 70.4362 35.975C70.3114 35.3153 70.0304 34.697 69.8318 34.0557C69.6331 33.4144 69.5187 32.7139 69.7316 32.0772C69.812 31.8371 69.9439 31.6053 70.1504 31.4592C70.3739 31.3009 70.6642 31.2593 70.9356 31.2948C71.2071 31.3303 71.464 31.4365 71.7119 31.5528C72.9383 32.128 74.0264 32.9716 74.9792 33.9354C75.4993 34.4616 75.9825 35.0256 76.5332 35.5195C77.0839 36.0135 77.7142 36.4413 78.4278 36.6348C78.6935 36.7069 78.9814 36.7445 79.2404 36.651C79.4262 36.5839 79.5841 36.453 79.7081 36.2991C79.8321 36.1452 79.9245 35.9685 80.0079 35.7892C80.1622 35.4577 80.2888 35.1124 80.4714 34.7956C80.654 34.4788 80.9016 34.186 81.231 34.0283C81.6139 33.8449 82.0718 33.865 82.4707 34.01C82.8696 34.1551 83.2171 34.4149 83.5315 34.7004C84.1561 35.2673 84.6755 35.9501 85.0553 36.7039C85.3018 36.1536 85.4518 35.5602 85.4963 34.9587C85.5703 33.9601 85.3487 32.9413 84.8657 32.0646C84.3678 31.161 83.616 30.4303 82.9118 29.6768C81.5179 28.1852 80.2774 26.5587 79.0027 24.9637C77.7347 23.3769 76.4213 21.8048 75.4737 20.0075C74.8093 18.7474 74.3354 17.3954 73.9265 16.0304C73.6002 14.9409 73.2993 13.8096 72.6126 12.9036C72.1381 12.2776 71.4909 11.7858 70.7645 11.4888C69.8928 11.1324 68.9251 11.0581 67.9883 11.1517L67.9883 11.1519Z" fill="white"/>
<path d="M67.9927 11.1954V11.1955C66.9465 11.3 65.9088 11.6183 65.0539 12.225V12.225C63.9226 13.0278 63.1839 14.273 62.5946 15.5411V15.5412C61.882 17.075 61.3413 18.6916 61.0329 20.3543V20.3543C60.987 20.6017 60.946 20.8508 60.9049 21.1008V21.1009C60.8637 21.3508 60.8225 21.6017 60.7763 21.8509V21.851C60.6588 22.4841 60.5088 23.1102 60.2446 23.6999V23.7C59.7869 24.7214 59.011 25.5694 58.1493 26.2741V26.2742C57.6497 26.6827 57.1175 27.0494 56.5873 27.4146V27.4147C56.0572 27.7799 55.5291 28.1438 55.0342 28.5485C54.885 28.6705 54.7388 28.7963 54.5966 28.9268C53.7548 29.6994 53.0574 30.6461 52.6765 31.7209C52.2538 32.9138 52.2385 34.2478 52.6337 35.4501L52.553 35.4444C52.9521 34.6395 53.5434 33.9312 54.2635 33.3953C54.452 33.255 54.6536 33.1234 54.8776 33.039C55.1017 32.9545 55.3521 32.9189 55.5898 32.9749C55.7598 33.0149 55.9164 33.1003 56.049 33.2107C56.1816 33.3211 56.2911 33.4564 56.3813 33.6012C56.5378 33.8524 56.6374 34.1325 56.7348 34.406C56.7492 34.4463 56.7644 34.4889 56.7789 34.529C56.8948 34.8494 57.0234 35.1645 57.2142 35.4403C57.4048 35.7158 57.6624 35.9503 57.9724 36.0616C58.3025 36.1801 58.6793 36.1506 59.0016 36.0055C59.324 35.8603 59.5926 35.6051 59.7807 35.3023C59.8692 35.1597 59.9407 35.0071 60.0135 34.8517C60.0858 34.6971 60.1593 34.54 60.2507 34.3928C60.2656 34.3687 60.281 34.3451 60.297 34.3216C60.4031 34.1655 60.5361 34.0216 60.7016 33.9229C60.8671 33.8241 61.0679 33.7731 61.2618 33.8074C61.4023 33.8323 61.5319 33.9006 61.6385 33.9916C61.7452 34.0825 61.8299 34.1959 61.8969 34.3162C62.0011 34.5032 62.0639 34.7082 62.1252 34.9076C62.1426 34.9642 62.1598 35.0203 62.178 35.076C62.2442 35.2795 62.3231 35.4776 62.4418 35.6496C62.5605 35.8214 62.7216 35.9657 62.9133 36.0344C63.1501 36.1193 63.4234 36.0824 63.6499 35.9627C63.8764 35.843 64.0586 35.6469 64.1947 35.4244C64.3758 35.128 64.4762 34.7932 64.5784 34.4513C64.6297 34.2794 64.6816 34.1058 64.7444 33.9368C64.8876 33.5511 65.096 33.1763 65.4097 32.9017C65.5666 32.7642 65.749 32.6536 65.948 32.5869C66.147 32.5203 66.3629 32.4986 66.5711 32.5347C66.8823 32.5887 67.1572 32.7671 67.382 32.9793C67.5574 33.1446 67.708 33.3328 67.8564 33.518C67.8982 33.57 67.9402 33.6225 67.9823 33.6738C68.0399 33.7441 68.0983 33.8133 68.1573 33.883C68.2157 33.9522 68.2754 34.0228 68.333 34.0932C68.3999 34.1747 68.4657 34.258 68.5283 34.3435C68.6997 34.5774 68.8503 34.8345 68.9316 35.1177C68.9905 35.3227 69.0114 35.5358 69.032 35.7439C69.0526 35.9528 69.0729 36.157 69.1289 36.3519C69.1368 36.3794 69.1454 36.4066 69.1548 36.4337C69.226 36.6386 69.3471 36.8285 69.5228 36.9445C69.6106 37.0024 69.7111 37.0408 69.8142 37.0511C69.9173 37.0613 70.0232 37.043 70.1133 36.995C70.1929 36.9527 70.2605 36.8875 70.3109 36.8105C70.3613 36.7334 70.3948 36.645 70.4135 36.553C70.451 36.3685 70.4296 36.1751 70.3932 35.983C70.3124 35.5557 70.1653 35.1455 70.0167 34.731C69.9381 34.5119 69.8591 34.2916 69.79 34.0686C69.5906 33.4246 69.4728 32.7131 69.6902 32.0632C69.7721 31.8183 69.9082 31.5768 70.1252 31.4233C70.3602 31.2568 70.6626 31.2148 70.9414 31.2513C71.2199 31.2876 71.4819 31.3964 71.7305 31.513C72.9627 32.0909 74.0549 32.938 75.0103 33.9045C75.1939 34.09 75.373 34.2807 75.5514 34.4705C75.73 34.6605 75.908 34.8499 76.0906 35.0346C76.2441 35.1898 76.4003 35.3413 76.5624 35.4868C77.1106 35.9784 77.7349 36.4014 78.4393 36.5924C78.7024 36.6637 78.9795 36.6985 79.2257 36.6097C79.4018 36.546 79.5536 36.421 79.6741 36.2715C79.7947 36.1218 79.8854 35.949 79.9683 35.7706C80.019 35.6618 80.0665 35.5518 80.1144 35.4407C80.1624 35.3297 80.2102 35.2189 80.2615 35.1088C80.3143 34.9952 80.3706 34.8829 80.4336 34.7736C80.6184 34.4528 80.8716 34.1517 81.2122 33.9886C81.6084 33.7988 82.0789 33.8208 82.4857 33.9687C82.8924 34.1166 83.2448 34.3808 83.561 34.6678C84.1896 35.2383 84.7122 35.9255 85.0944 36.684L85.0154 36.6858C85.2598 36.1402 85.4085 35.5517 85.4527 34.9553C85.5261 33.9652 85.3063 32.9549 84.8274 32.0857C84.4036 31.3164 83.7939 30.6726 83.1828 30.0278C83.0819 29.9213 82.9798 29.8136 82.8799 29.7066C81.7427 28.4897 80.7076 27.1833 79.6743 25.879V25.8791C79.44 25.5834 79.2039 25.2854 78.9686 24.991V24.991C78.8482 24.8402 78.7292 24.692 78.6083 24.5413V24.5414C78.4903 24.3943 78.3649 24.238 78.2471 24.0907V24.0907C77.2168 22.8015 76.2056 21.4894 75.4351 20.0279V20.028C74.7688 18.7641 74.2938 17.409 73.8847 16.0429V16.043C73.8597 15.9596 73.8342 15.8737 73.8093 15.79V15.7901C73.7845 15.7064 73.7587 15.6194 73.7337 15.5358V15.5359C73.456 14.6088 73.153 13.6889 72.5778 12.93V12.9301C72.1082 12.3104 71.4674 11.8234 70.748 11.5292L70.748 11.5293C69.8847 11.1763 68.9246 11.1021 67.9927 11.1953L67.984 11.108C68.9257 11.0139 69.901 11.0882 70.7811 11.4481L70.7811 11.4481C71.5146 11.748 72.1682 12.2446 72.6475 12.877V12.877C73.2334 13.65 73.54 14.5843 73.8175 15.5106V15.5107C73.8428 15.595 73.8683 15.6809 73.8933 15.765V15.7651C73.9179 15.8481 73.9437 15.9351 73.9685 16.0177V16.0178C74.377 17.3816 74.8501 18.7305 75.5125 19.987V19.987C76.2788 21.4403 77.2852 22.7467 78.3154 24.0359V24.0359C78.4347 24.1851 78.5569 24.3374 78.6765 24.4864V24.4864C78.7958 24.6351 78.918 24.7873 79.0369 24.9362V24.9362C79.273 25.2315 79.508 25.5281 79.7428 25.8245V25.8246C80.7766 27.1293 81.8095 28.4329 82.9438 29.6467C83.044 29.7539 83.1449 29.8604 83.2463 29.9674C83.856 30.6108 84.4739 31.2625 84.9041 32.0434C85.3912 32.9274 85.6146 33.9548 85.54 34.9618C85.4951 35.5683 85.3438 36.1668 85.0953 36.7217C85.0884 36.7371 85.0732 36.7472 85.0563 36.7476C85.0395 36.748 85.0239 36.7386 85.0163 36.7235C84.6389 35.9745 84.1228 35.296 83.5022 34.7328C83.1894 34.4489 82.8469 34.1934 82.4558 34.0512C82.0648 33.9089 81.6196 33.8907 81.2499 34.0677C80.9316 34.2201 80.6897 34.5046 80.5093 34.8174C80.4481 34.9237 80.3929 35.0338 80.3408 35.1458C80.2901 35.2547 80.2428 35.3643 80.1948 35.4755C80.1469 35.5864 80.0989 35.6975 80.0477 35.8077C79.9639 35.9877 79.8696 36.1684 79.7422 36.3266C79.6147 36.4847 79.4506 36.6216 79.2554 36.6921C78.9835 36.7903 78.6848 36.7499 78.4164 36.6771C77.6936 36.4809 77.0574 36.0484 76.5041 35.5521C76.3402 35.4051 76.1828 35.2524 76.0284 35.0963C75.8448 34.9105 75.6663 34.7206 75.4877 34.5306C75.3091 34.3406 75.1308 34.151 74.9481 33.9661C73.9979 33.005 72.9139 32.1649 71.6934 31.5924C71.4461 31.4764 71.1944 31.3728 70.93 31.3382C70.6659 31.3036 70.3877 31.3448 70.1757 31.4949C69.9797 31.6336 69.8519 31.8557 69.7732 32.0911C69.5647 32.7143 69.6758 33.404 69.8736 34.0426C69.942 34.2634 70.0204 34.4821 70.0991 34.7014C70.2473 35.1147 70.3969 35.5315 70.4792 35.9667C70.5161 36.1616 70.5403 36.3689 70.4992 36.5705C70.4787 36.6715 70.4415 36.7708 70.3841 36.8585C70.3267 36.9462 70.2485 37.0224 70.1544 37.0725C70.0476 37.1292 69.9242 37.1502 69.8055 37.1383C69.6868 37.1264 69.573 37.0826 69.4746 37.0177C69.278 36.8879 69.1475 36.6793 69.0721 36.4625C69.0621 36.4338 69.0531 36.4051 69.0448 36.3761C68.9862 36.1722 68.9654 35.9601 68.9449 35.7525C68.9242 35.543 68.9038 35.3381 68.8475 35.1419C68.7701 34.8724 68.6258 34.6249 68.4577 34.3953C68.3963 34.3114 68.3316 34.2297 68.2654 34.1489C68.2081 34.0789 68.1491 34.0091 68.0904 33.9397C68.0315 33.8699 67.9728 33.8004 67.9146 33.7295C67.8722 33.6776 67.83 33.625 67.7882 33.5729C67.6391 33.3868 67.4922 33.2036 67.322 33.0431C67.1042 32.8374 66.8443 32.6711 66.5562 32.6211C66.3637 32.5877 66.1624 32.6076 65.9758 32.6701C65.7891 32.7325 65.6166 32.837 65.4673 32.9677C65.1685 33.2292 64.9668 33.5893 64.8265 33.9673C64.7648 34.1332 64.7138 34.3041 64.6622 34.4765C64.5606 34.8164 64.4574 35.1625 64.2693 35.4701C64.1275 35.7021 63.9348 35.9113 63.6907 36.0403C63.4467 36.1692 63.1479 36.2116 62.8838 36.117C62.6704 36.0405 62.4959 35.882 62.3698 35.6994C62.2439 35.5169 62.1619 35.3095 62.0948 35.1032C62.0763 35.0466 62.0589 34.9899 62.0415 34.9334C61.9798 34.7324 61.9194 34.5365 61.8205 34.3589C61.7573 34.2453 61.6787 34.141 61.5818 34.0584C61.4849 33.9757 61.3692 33.9155 61.2465 33.8938C61.0773 33.8637 60.8976 33.908 60.7464 33.9982C60.5951 34.0884 60.4708 34.2218 60.3693 34.371C60.3541 34.3933 60.3394 34.4161 60.325 34.4391C60.2368 34.5811 60.1654 34.7336 60.0927 34.8889C60.0204 35.0435 59.9467 35.201 59.855 35.3486C59.6592 35.6638 59.378 35.9321 59.0375 36.0855C58.6971 36.2387 58.2968 36.2712 57.9429 36.1441C57.6109 36.025 57.3399 35.7759 57.1422 35.4902C56.9446 35.2046 56.8129 34.8806 56.6966 34.5589C56.6818 34.5179 56.667 34.4764 56.6524 34.4354C56.5544 34.1603 56.4577 33.8895 56.307 33.6476C56.2206 33.5088 56.117 33.3814 55.993 33.2782C55.8691 33.1749 55.7245 33.0967 55.5697 33.0603C55.3533 33.0092 55.1209 33.041 54.9084 33.1211C54.6958 33.2011 54.5018 33.3272 54.3157 33.4656C53.6067 33.9933 53.0243 34.6909 52.6313 35.4834C52.6235 35.4993 52.6067 35.5089 52.589 35.5076C52.5713 35.5063 52.5561 35.4945 52.5506 35.4776C52.1493 34.2567 52.1649 32.9029 52.594 31.6916C52.9807 30.6004 53.6876 29.6422 54.5375 28.8622C54.681 28.7303 54.8285 28.6035 54.9789 28.4806C55.477 28.0732 56.0081 27.7073 56.5377 27.3424V27.3425C57.0684 26.9768 57.5976 26.6121 58.0939 26.2062V26.2063C58.9497 25.5064 59.7146 24.6686 60.1648 23.664V23.6641C60.4247 23.0838 60.5732 22.4657 60.6902 21.8349V21.835C60.7362 21.5868 60.7774 21.3367 60.8185 21.0865V21.0866C60.8597 20.8367 60.9008 20.5868 60.9469 20.3383V20.3383C61.2567 18.6676 61.7999 17.0439 62.5153 15.5041V15.5042C63.1061 14.2327 63.8527 12.9699 65.0033 12.1534V12.1535C65.8735 11.5359 66.9267 11.2138 67.984 11.1081L67.9927 11.1954Z" fill="white"/>
<path d="M54.1273 33.333C54.0268 32.5079 54.3019 31.6442 54.8608 31.0298C55.3454 30.4972 56.008 30.1654 56.6682 29.8793C57.3284 29.5932 58.0111 29.336 58.5924 28.9115C59.5234 28.2318 60.1124 27.1842 60.5861 26.1323C61.4225 24.2749 61.99 22.2962 62.2654 20.2773C62.1926 22.4033 61.8988 24.5215 61.3901 26.5866C61.1349 27.6225 60.8111 28.674 60.1441 29.506C59.5528 30.2434 58.729 30.7608 58.104 31.47C57.3643 32.3093 56.9285 33.4119 56.8943 34.531C56.8495 34.257 56.7716 33.9884 56.6628 33.7331C56.5896 33.5613 56.5015 33.3941 56.3802 33.2523C56.2057 33.0484 55.9653 32.904 55.7059 32.836C55.4465 32.768 55.1692 32.7754 54.9108 32.8473C54.611 32.9308 54.3358 33.1013 54.1273 33.3328L54.1273 33.333Z" fill="#F2F2F2"/>
<path d="M61.8408 33.8308C61.9848 34.1146 62.1046 34.4107 62.1985 34.7149C62.2999 35.043 62.3762 35.3908 62.5863 35.6622C62.6949 35.8026 62.8439 35.9203 63.0183 35.9527C63.1881 35.9842 63.3659 35.931 63.5104 35.8363C63.655 35.7416 63.7702 35.6082 63.8721 35.4685C64.1119 35.14 64.2879 34.77 64.4561 34.3995C64.617 34.045 64.7721 33.6877 64.9135 33.3249C65.4943 31.8346 65.8412 30.2485 65.8832 28.6492C65.9215 27.1925 65.7059 25.7293 65.2493 24.3457C65.5426 25.7339 65.6305 27.1655 65.5094 28.5791C65.3955 29.9085 65.0974 31.2202 64.6505 32.4772C64.4778 32.963 64.2792 33.4475 63.9666 33.8573C63.8275 34.0396 63.6653 34.2067 63.473 34.3313C63.2806 34.456 63.0565 34.5366 62.8274 34.5394C62.6109 34.542 62.3941 34.4736 62.2181 34.3472C62.0421 34.2208 61.9079 34.037 61.8409 33.8307L61.8408 33.8308Z" fill="#E6E6E6"/>
<path d="M69.2342 36.2643C69.2506 36.3765 69.2847 36.4867 69.3401 36.5857C69.3954 36.6846 69.4724 36.7722 69.5669 36.8347C69.6357 36.8802 69.7142 36.9124 69.7962 36.9217C69.8782 36.931 69.9636 36.9166 70.0351 36.8753C70.1041 36.8354 70.1578 36.772 70.1941 36.7011C70.2305 36.6301 70.2505 36.5516 70.2619 36.4727C70.2998 36.2109 70.2462 35.9451 70.1837 35.6881C69.958 34.7611 69.6129 33.8674 69.3624 32.9468C69.0334 31.7379 68.8693 30.4892 68.7792 29.2394C68.689 27.9887 68.6721 26.7327 68.7286 25.48C68.5504 26.7223 68.4731 27.9791 68.4979 29.2338C68.5274 30.7248 68.7015 32.2157 69.0669 33.6613C69.2001 34.188 69.3599 34.7221 69.3166 35.2636C69.2899 35.5984 69.1857 35.932 69.2343 36.2642L69.2342 36.2643Z" fill="#ECECEC"/>
<path d="M81.5136 33.5638C81.0892 33.6433 80.6975 33.8863 80.4373 34.2315C80.1739 34.5809 80.0511 35.0133 79.8668 35.4103C79.7114 35.745 79.51 36.0581 79.2699 36.3381C77.8523 34.9931 76.5796 33.4949 75.481 31.8779C74.4856 30.4128 73.6271 28.8358 73.136 27.1333C72.8367 26.0956 72.6769 24.9931 72.8867 23.9336C73.0557 23.0802 73.4661 22.2761 74.0577 21.6392C73.638 22.3812 73.3846 23.217 73.3218 24.0675C73.2135 25.5317 73.6676 26.9933 74.3639 28.2852C75.0779 29.6098 76.0551 30.7977 77.2509 31.7095C78.4956 32.6585 79.9716 33.3006 81.5136 33.5638Z" fill="#ECECEC"/>
<path d="M46.9091 38.0828L46.887 39.1697C46.6441 41.3688 45.7166 43.1619 44.1043 44.5492C42.4804 45.9359 40.521 46.5593 38.226 46.4192C36.0307 46.176 34.2405 45.2469 32.8556 43.6319C32.4116 43.1098 32.0392 42.5355 31.7383 41.9093L31.3505 40.94C31.1311 40.2708 31.0031 39.5677 30.9665 38.8307C30.9178 36.5661 31.608 34.6476 33.0373 33.0752C34.4666 31.5028 36.309 30.6352 38.5645 30.4721C40.8253 30.4233 42.7406 31.1147 44.3104 32.5464C45.8801 33.978 46.7463 35.8235 46.9091 38.0828Z" fill="#88AB8E" fill-opacity="0.4"/>
<path d="M28.9885 44.7338L28.9589 45.3028C28.7952 46.4508 28.2795 47.3747 27.4119 48.0746C26.5383 48.7741 25.5014 49.0681 24.3015 48.9565C23.1554 48.7926 22.233 48.2761 21.5343 47.407C21.3103 47.1261 21.1248 46.8191 20.9775 46.486L20.7905 45.9717C20.6866 45.6175 20.6312 45.247 20.6243 44.8603C20.6363 43.6731 21.0297 42.6796 21.8045 41.8796C22.5793 41.0797 23.5589 40.6558 24.7432 40.6079C25.9284 40.6199 26.9203 41.014 27.7189 41.7901C28.5175 42.5663 28.9407 43.5475 28.9885 44.7338Z" fill="#88AB8E" fill-opacity="0.4"/>
<path d="M66.7307 14.0898C66.1937 14.2683 65.7146 14.9059 65.4715 15.7638C65.3327 16.2577 65.3489 16.8814 65.5086 17.2384C65.7377 17.7416 66.1984 17.8644 66.6821 17.5538C67.1266 17.2663 67.4877 16.6889 67.6867 15.9493C67.7446 15.736 67.7492 15.6827 67.7492 15.2769C67.7469 14.8549 67.7446 14.8294 67.6844 14.6625C67.5964 14.419 67.4853 14.2614 67.3303 14.1594C67.2122 14.0805 67.1867 14.0736 67.0131 14.0666C66.8974 14.062 66.7863 14.0712 66.7307 14.0898Z" fill="black"/>
<path d="M69.2422 14.1458C68.9181 14.1992 68.7214 14.4009 68.5871 14.8136C68.5547 14.9133 68.5408 15.0454 68.5316 15.2912C68.52 15.5834 68.5269 15.6668 68.5709 15.8825C68.7515 16.7751 69.2329 17.5031 69.8046 17.7512C69.8996 17.793 69.969 17.8046 70.1218 17.8046C70.2931 17.8046 70.3324 17.7976 70.425 17.742C71.0916 17.3501 71.0777 15.9497 70.3949 14.9017C70.2444 14.6722 69.969 14.3939 69.7746 14.2826C69.6542 14.2108 69.3672 14.1203 69.3116 14.1342C69.3047 14.1342 69.2746 14.1412 69.2422 14.1458Z" fill="black"/>
<path d="M68.2674 18.4962C67.9933 18.5562 67.7769 18.744 67.5714 19.1096C67.4879 19.2555 67.4567 19.3384 67.38 19.6418C67.2998 19.9491 67.2859 20.039 67.2778 20.2717C67.2588 21.0048 67.427 21.6072 67.7536 21.9875C67.9428 22.2072 68.2195 22.3203 68.4586 22.2751C68.6999 22.2304 68.9645 22.0049 69.131 21.7058C69.3188 21.3619 69.404 21.0631 69.4402 20.6125C69.5095 19.7966 69.2543 18.9774 68.8278 18.6405C68.7744 18.5977 68.6666 18.5432 68.5788 18.513C68.4378 18.4665 68.4098 18.4639 68.2674 18.4962Z" fill="black"/>
<path d="M46.7449 59.3935L47.2888 57.8577L47.8328 56.3219L23.017 55.271C22.5045 56.4362 21.992 57.6014 21.4795 58.7666C26.5014 60.1297 31.5233 61.4928 36.5452 62.8559L46.7449 59.3935Z" fill="#BEB416" fill-opacity="0.5"/>
<path d="M29.1698 56.1402L29.1549 56.1424C28.0494 56.2032 27.4091 56.252 27.2341 56.2888C27.0358 56.3166 26.8585 56.352 26.7024 56.3953C26.1443 56.5748 25.7657 56.681 25.5668 56.7138C25.1517 56.7868 24.8198 56.8258 24.5712 56.8308C24.031 56.8418 23.6484 56.8198 23.4236 56.7649C23.275 56.7376 23.1332 56.7008 22.9983 56.6544L22.8038 56.5765C22.6792 56.5188 22.5648 56.4508 22.4609 56.3726C22.2532 56.2144 22.0851 56.0256 21.9564 55.8062C21.8393 55.65 21.7361 55.3507 21.6466 54.9083C21.6019 54.6054 21.6062 54.276 21.6595 53.92C21.7191 53.518 21.8542 52.9965 22.0646 52.3554C22.094 52.1278 22.1066 51.9598 22.1024 51.8513C22.1471 51.5742 21.9556 51.3437 21.5278 51.1596C21.9154 50.9488 22.2096 50.8363 22.4106 50.8219C22.7287 50.7615 23.2673 50.8801 24.0264 51.1775L26.9982 53.108L29.1698 56.1402Z" fill="black" fill-opacity="0.996078"/>
<path d="M29.8421 56.4253L29.8422 56.4253L28.6368 56.1996L28.1754 56.204C28.1738 55.8647 28.1059 55.5948 27.9603 55.4033C27.8237 55.2238 27.6129 55.0831 27.3329 54.9904C27.0944 54.9114 26.9171 54.8861 26.8067 54.8865C26.7352 54.8868 26.6641 54.8819 26.5938 54.8885C26.144 54.9306 25.9076 54.9482 25.8837 54.9345C25.7688 54.9373 25.6236 54.9156 25.4781 54.8183C25.1439 54.5949 25.0531 54.3576 25.1508 54.1448C25.1765 54.0887 25.2466 54.0196 25.3716 53.9297C25.4141 53.8992 25.6333 53.7989 26.0357 53.6301C26.1338 53.5889 26.1706 53.5427 26.1395 53.5199C26.0802 53.4765 26.0055 53.4586 25.9268 53.4453C25.3552 53.349 24.9675 53.277 24.765 53.2259C24.3935 53.1323 24.1851 53.0538 24.1225 53.03C23.7611 52.893 23.4366 52.6586 23.2524 52.2484C22.9816 51.6452 23.0256 51.1773 23.2901 50.8843C24.0071 50.6507 24.479 50.5417 24.7048 50.5289C24.9553 50.5147 25.1968 50.5834 25.4315 50.7633C26.2074 50.2791 26.6822 50.0628 26.8554 50.0511C27.0694 50.0366 27.1697 50.214 27.1635 50.6461C27.4779 50.5838 27.6744 50.5737 27.7589 50.5961C27.8533 50.6211 27.9239 50.7019 27.9662 50.8587C27.9891 50.7469 28.0698 50.7035 28.2063 50.7372C28.3271 50.767 28.5248 50.8582 28.8016 51.0021C29.131 50.983 29.3721 50.9942 29.517 51.0562C29.6572 51.1162 29.7328 51.1914 29.7528 51.2621C29.8252 51.3683 29.8591 51.6394 29.8547 52.0756L29.581 52.806L31.7225 54.2537L29.8421 56.4253Z" fill="#FEBA9B"/>
<path d="M29.5634 53.3582L29.4962 53.6409C29.0902 55.0612 29.06 56.2628 29.4055 57.2458C29.5392 57.6021 29.7813 57.9366 30.1317 58.2493C30.4822 58.562 30.9944 58.8359 31.6686 59.0711C33.1757 59.5467 35.4083 59.8192 38.3664 59.8886C40.1598 59.9454 42.1172 59.9386 44.2385 59.8681C45.5142 59.8295 46.7828 59.7156 48.0444 59.5263C48.2912 56.6687 48.2719 54.9588 47.9865 54.3967C47.8926 54.0638 47.7605 53.7715 47.5902 53.5197L47.2999 53.1791C47.095 52.979 46.8194 52.8242 46.473 52.7148C46.0437 52.5634 45.355 52.5146 44.407 52.5685C44.0872 52.5905 43.758 52.6221 43.4194 52.6634C41.6899 52.9066 40.6577 53.0447 40.3229 53.0776C39.5729 53.1514 39.0171 53.1796 38.6555 53.1622C38.3288 53.1679 37.7986 53.1219 37.0649 53.0244C36.805 52.9953 35.9215 52.8206 34.4142 52.5001C34.2326 52.4667 34.0073 52.446 33.7383 52.4379C33.617 52.4158 33.3254 52.4573 32.8635 52.5624C32.7038 52.5775 32.197 52.8065 31.3429 53.2497C31.2607 53.2975 31.1117 53.3392 30.896 53.3747C30.741 53.3875 30.5795 53.3608 30.4115 53.2947C30.2359 53.2283 29.9834 53.0642 29.6543 52.8025C29.6135 52.7803 29.5806 52.7743 29.5558 52.7846C29.4871 52.8249 29.4896 53.0161 29.5634 53.3582Z" fill="#FEBA9B" fill-opacity="0.996078"/>
<path d="M43.5989 68.1201L43.599 68.1206L43.5992 68.1211L43.5989 68.1201Z" fill="black" fill-opacity="0.996078"/>
<path d="M33.7417 56.9453L34.3084 57.0135C35.4443 57.1524 36.5694 57.2801 37.6838 57.3966C38.6065 57.4874 39.1571 57.5387 39.3354 57.5504C39.6379 57.5767 40.0583 57.6072 40.5967 57.642C41.3918 57.6916 42.2726 57.7272 43.2391 57.7488C43.9171 57.7662 45.0287 57.7762 46.5742 57.7789L33.7417 56.9453Z" fill="#FF5100" fill-opacity="0.0941176"/>
<path d="M50.9062 55.8809C53.6527 56.7102 56.3991 57.5395 59.1455 58.3688L50.9062 55.8809Z" fill="#FF5100" fill-opacity="0.996078"/>
<path d="M48.5285 60.3091L48.5283 60.3096L48.5285 60.31V60.3091Z" fill="black" fill-opacity="0.996078"/>
<path d="M46.6819 57.7376L46.7131 57.6696C46.8833 57.2994 47.0627 57.0713 47.2514 56.9853C47.603 56.8079 47.8659 56.7779 48.0402 56.8953C48.1251 56.9586 48.1644 57.0847 48.158 57.2738C48.1553 57.4219 48.1139 57.6679 48.0338 58.0119C48.3209 57.9968 48.5118 58.0182 48.6066 58.0761C48.7468 58.1508 48.8397 58.2684 48.8855 58.429C48.9839 58.735 48.9644 59.0613 48.827 59.4078C48.6678 59.7438 48.329 59.9161 47.8105 59.9246C47.5561 59.9342 47.2688 59.9233 46.9485 59.8918L44.0112 59.5893L46.0727 58.7279L46.6819 57.7376Z" fill="#FEBA9B" fill-opacity="0.996078"/>
<path d="M29.7693 60.7035C29.8278 60.6958 29.8985 60.6912 29.9813 60.6896C30.0366 60.6867 30.1593 60.6895 30.3493 60.698L29.7693 60.7035Z" fill="#A4AEB5" fill-opacity="0.996078"/>
<path d="M30.8396 53.1965L30.5195 53.6813C29.7847 54.8077 29.3364 55.5821 29.1745 56.0046C28.9112 56.7062 28.798 57.1095 28.835 57.2145C28.762 57.9607 29.171 58.517 30.062 58.8835C31.0817 59.3189 32.977 59.6486 35.748 59.8726C37.4578 60.3846 38.6526 60.7118 39.3324 60.8541C40.4575 61.0801 41.1141 61.1888 41.302 61.18C42.1348 61.2631 42.8748 61.2112 43.522 61.0245C44.1556 60.8311 44.6536 60.4855 45.0161 59.9877L45.3441 59.4562C45.5381 59.0716 45.6846 58.6509 45.7835 58.1939C45.9797 57.2557 45.9951 56.3183 45.8299 55.3818C45.575 53.9299 44.9556 52.9992 43.972 52.5896C43.3188 52.357 42.5915 52.2868 41.7899 52.3792L41.1952 52.4486L38.3359 52.9192C37.9953 52.9541 37.6777 52.968 37.3832 52.9611C37.0888 52.9542 36.8134 52.9329 36.5572 52.8974C36.3387 52.8851 35.5929 52.7245 34.3198 52.4156L33.9034 52.3703C33.8101 52.3659 33.7172 52.3652 33.6245 52.3681C32.9051 52.3881 31.9767 52.6642 30.8396 53.1965Z" fill="black"/>
<path d="M17.8809 63.1562L47.8502 63.1563L77.8196 63.1563C77.8196 67.4534 77.8196 71.7505 77.8196 76.0477C57.84 76.0477 37.8604 76.0477 17.8809 76.0477C17.8809 71.7505 17.8809 67.4534 17.8809 63.1562Z" fill="#8A2911" fill-opacity="0.996078"/>
<path d="M19.8184 59.0498L49.0859 59.0498L78.3534 59.0499C78.3534 60.7001 78.3534 62.3502 78.3534 64.0004C58.8417 64.0005 39.33 64.0005 19.8184 64.0005C19.8184 62.3502 19.8184 60.7 19.8184 59.0498Z" fill="#FFED45" fill-opacity="0.5"/>
<path d="M26.6514 65.918L48.766 65.918L70.8807 65.918C70.8807 68.1488 70.8807 70.3796 70.8807 72.6104C56.1376 72.6104 41.3945 72.6104 26.6514 72.6104C26.6514 70.3796 26.6514 68.1488 26.6514 65.918Z" fill="#923F2B" fill-opacity="0.996078"/>
<path d="M16.4695 47.7065L18.1405 47.7066L19.8116 47.7066C19.8116 57.1947 19.8116 66.6828 19.8116 76.1709C18.6975 76.171 17.5835 76.171 16.4695 76.171C16.4695 66.6829 16.4695 57.1947 16.4695 47.7065Z" fill="#923E2A" fill-opacity="0.996078"/>
<path d="M35.2698 52.0598L34.3457 70.3814C38.4831 70.2278 42.5442 69.9644 46.5288 69.591C46.9008 69.5363 48.5722 69.5388 51.5429 69.5987C51.9815 69.5963 52.421 69.5814 52.8614 69.554C53.4643 69.5129 54.0769 69.4477 54.6991 69.3586C58.1836 68.7914 60.1337 68.4937 60.5495 68.4653C62.4434 68.2402 64.0101 68.0992 65.2498 68.0423C67.6744 67.8928 71.3695 67.9098 76.3351 68.0934C76.6497 65.0552 77.1766 61.249 77.9158 56.6748C78.0809 55.3376 78.1614 54.5721 78.1575 54.3785C78.2244 53.4355 78.1852 52.7331 78.0398 52.2715C77.9485 51.9636 77.746 51.7884 77.4323 51.7457C77.3065 51.7192 77.0686 51.7641 76.7185 51.8805C75.4124 52.4936 74.5832 52.8466 74.2308 52.9396C73.7233 53.083 73.2149 53.1521 72.7058 53.1469C72.311 53.1445 71.9176 53.114 71.5255 53.0553C71.4554 53.0706 70.3561 52.8477 68.2275 52.3867C67.5781 52.2684 66.9219 52.1861 66.259 52.14C65.5456 52.0971 64.9025 52.0948 64.3297 52.1331L60.1758 52.5805C59.5599 52.6382 58.9605 52.6576 58.3776 52.6385C58.2362 52.6439 57.8045 52.6071 57.0824 52.5282C54.3907 52.0833 52.2612 51.7866 50.6937 51.6381C48.3323 51.4174 46.4622 51.2935 45.0833 51.2664C41.736 51.163 38.4648 51.4275 35.2698 52.0598Z" fill="#88AB8E" fill-opacity="0.996078"/>
</svg>
