<svg width="102" height="98" viewBox="0 0 102 98" fill="none" xmlns="http://www.w3.org/2000/svg">
<g clip-path="url(#clip0_510_2133)">
<path d="M51.1301 28.0085L51.008 27.6815L50.886 27.3545C48.9568 27.4621 47.0277 27.5696 45.0986 27.6772C44.9798 28.6103 44.8611 29.5435 44.7424 30.4766C45.17 31.327 45.5976 32.1774 46.0252 33.0278L51.1301 28.0085Z" fill="#FFC8A6" fill-opacity="0.996078"/>
<path d="M106.664 90.5737L106.177 90.7355C105.664 90.8079 104.931 90.8771 103.978 90.9431C103.776 90.9801 101.853 91.0718 98.2085 91.2183C94.9851 91.3309 90.8831 91.4307 85.9024 91.5175C79.4602 91.616 75.4762 91.6682 73.9503 91.6741C71.1458 91.7003 68.2424 91.7208 65.2401 91.7355C59.2354 91.765 52.8349 91.7715 46.0386 91.7551C42.7955 91.7436 39.6967 91.7273 36.7422 91.706C35.0846 91.7015 30.9775 91.6585 24.421 91.5771C19.3778 91.5051 14.9118 91.4135 11.023 91.3023C2.34058 91.0331 -1.26499 90.7534 0.206241 90.4632C0.8529 90.3187 2.45366 90.1853 5.00852 90.0632C6.28594 90.0022 7.8019 89.944 9.55637 89.8885C10.1637 89.8566 13.3039 89.7804 18.9768 89.6598C28.4047 89.4817 39.8398 89.3889 53.2822 89.3813C61.4641 89.3954 66.2228 89.4102 67.5581 89.4258C70.5423 89.4437 73.4011 89.4669 76.1344 89.4954C81.6011 89.5525 86.566 89.6309 91.029 89.7306C95.4921 89.8302 99.001 89.9411 101.556 90.0632C102.833 90.1243 103.872 90.1882 104.673 90.2548C106.256 90.4263 106.92 90.5326 106.664 90.5737Z" fill="black" fill-opacity="0.203922"/>
<path d="M19.5575 45.6181L19.3395 47.1588C18.8359 50.3114 18.6364 53.1434 18.7408 55.6548C19.0128 58.2642 19.7094 59.8761 20.8307 60.4904C22.2957 62.0935 27.4056 61.785 36.1602 59.5649L39.1647 90.0074L47.0153 88.58C47.3298 77.3746 47.363 69.6836 47.1149 65.5071C46.7895 60.1696 46.084 56.8513 44.9985 55.5521C44.0618 54.2531 42.849 53.4576 41.3602 53.1658C39.798 52.7321 36.5013 52.4989 31.47 52.4662L31.111 44.0713L19.5575 45.6181Z" fill="black" fill-opacity="0.996078"/>
<path d="M42.7126 63.8291L44.3547 67.7094L42.3348 70.835L39.3958 70.1329C39.9076 69.4056 40.2958 68.9906 40.5602 68.8878C40.8231 68.7385 41.226 68.7755 41.7689 68.9988L40.2443 65.722L42.7126 63.8291Z" fill="#FFC8A6"/>
<path d="M9.0547 30.8613L11.1279 30.8614L13.201 30.8615C13.201 41.0806 13.201 51.2998 13.201 61.519C11.8189 61.519 10.4368 61.519 9.05469 61.5191C9.05468 51.2998 9.05469 41.0806 9.0547 30.8613Z" fill="#1B0202"/>
<path d="M8.82983 58.8105L22.8971 58.8106L36.9643 58.8107C36.9643 61.0381 36.9643 63.2656 36.9643 65.493C27.5861 65.4931 18.208 65.4931 8.82983 65.4932C8.82983 63.2656 8.82983 61.0381 8.82983 58.8105Z" fill="#1B0202"/>
<path d="M10.2615 60.4302L11.4543 60.4302L12.6472 60.4303C12.6472 70.7059 12.6472 80.9815 12.6472 91.2571C11.8519 91.2572 11.0567 91.2572 10.2615 91.2573C10.2615 80.9816 10.2615 70.7059 10.2615 60.4302Z" fill="#1B0202"/>
<path d="M30.4295 63.2085L31.6223 63.2086L32.8152 63.2086C32.8152 72.5582 32.8151 81.9078 32.8151 91.2574C32.0199 91.2574 31.2247 91.2574 30.4294 91.2575C30.4295 81.9079 30.4295 72.5582 30.4295 63.2085Z" fill="#1B0202"/>
<path d="M50.4412 40.7695L71.8207 40.7696L93.2002 40.7697C93.2002 41.6522 93.2002 42.5348 93.2002 43.4174C78.9472 43.4175 64.6942 43.4175 50.4412 43.4176C50.4412 42.5349 50.4412 41.6522 50.4412 40.7695Z" fill="#293855"/>
<path d="M53.2876 38.1899L64.049 38.19L74.8104 38.1901C74.8104 39.0627 74.8104 39.9353 74.8104 40.8079C67.6362 40.808 60.4619 40.808 53.2876 40.8081C53.2876 39.9354 53.2876 39.0627 53.2876 38.1899Z" fill="#1B0202"/>
<path d="M75.7789 17.6494L76.7551 17.7918L77.7313 17.9343C76.7227 24.9326 75.7141 31.9309 74.7055 38.9293C74.0546 38.8344 73.4038 38.7396 72.7529 38.6448C73.7616 31.6463 74.7702 24.6478 75.7789 17.6494Z" fill="#1B0202"/>
<path d="M50.6213 42.2964L51.6077 42.2965L52.5941 42.2966C52.5941 58.1866 52.5941 74.0766 52.5941 89.9665C51.9365 89.9666 51.2789 89.9667 50.6213 89.9667C50.6213 74.0766 50.6213 58.1865 50.6213 42.2964Z" fill="#293855"/>
<path d="M62.1759 33.5418C62.4557 32.476 62.4011 31.5575 62.0119 30.7863C61.9899 30.6787 61.5481 30.1598 60.9546 29.0671C60.3009 27.8636 60.0562 27.1473 59.9403 27.0584C59.6061 26.5955 59.1637 26.2446 58.6001 26.0414C56.7671 25.3805 54.585 25.3158 52.0684 25.8206C51.5345 25.9277 50.8376 26.6954 50.2641 26.8643L49.8257 29.2948C51.0953 32.1776 51.1148 32.9383 52.0894 34.0159C52.5782 34.5563 53.165 35.0786 53.8571 35.5871C54.2546 35.8791 55.2228 36.4696 56.7696 37.3541C57.0094 37.4911 57.2138 37.6496 57.4034 37.797C57.8478 38.1425 58.192 38.581 58.4304 39.1201C59.1445 39.029 59.7826 38.5439 60.3431 37.6639C61.1948 36.3269 61.8046 34.955 62.1741 33.5489L62.1759 33.5418Z" fill="black"/>
<path d="M57.6657 37.7147C57.5191 36.4033 57.2623 35.6601 56.9454 35.4147C56.6792 35.2087 56.2008 35.1174 55.4549 35.207L54.5744 34.0631L52.8447 33.7016L52.8211 32.8152C53.8129 32.554 54.406 32.3322 54.6149 32.1676C54.8725 31.9647 54.9277 31.7012 54.7713 31.3566C54.5826 30.9411 54.3168 30.6546 53.9831 30.4728C53.7673 30.3552 53.318 30.3146 52.6205 30.3769C52.494 30.3537 52.3809 30.2717 52.2464 30.1743C52.0286 30.0167 49.4478 29.0992 50.2707 27.3755L45.4207 32.6183L46.9064 32.6392L46.6212 35.4012C46.2835 36.4404 46.2381 37.05 46.4064 37.292C46.5757 37.5353 47.1347 37.5887 48.1682 37.3995C48.6277 37.7343 48.94 37.8821 49.1069 37.8806C49.3021 37.879 49.5154 37.7307 49.7475 37.3982C49.7568 37.8517 49.8482 38.106 49.9969 38.2035C50.1509 38.3044 50.506 38.3387 51.0911 38.2663C51.0865 39.0515 51.1962 39.4129 51.4249 39.398C51.5372 39.3907 51.7139 39.3389 51.9553 39.1945L53.621 38.0926L54.0868 38.0776C54.462 38.2585 54.8524 38.314 55.261 38.2738C55.6525 38.2353 56.4522 38.0596 57.6577 37.7169L57.6657 37.7147Z" fill="#FFC8A6"/>
<path d="M49.0705 32.4457L45.1086 31.7476L46.6941 35.2088C47.1589 34.3982 47.5448 33.8203 47.8517 33.4749C48.1367 33.1434 48.5419 32.801 49.0675 32.4478" fill="#FA5757" fill-opacity="0.0745098"/>
<path d="M31.8481 52.3465L31.7145 52.5847C30.8408 54.417 29.0587 55.4606 26.3683 55.7155C24.2729 56.1286 21.5133 55.6775 18.0894 54.3622C18.4728 48.511 19.6513 43.9924 21.6249 40.8062C24.8156 35.5548 28.9151 31.4859 33.9233 28.5996C37.3051 26.7845 41.5129 26.2076 46.5468 26.8689L46.3956 31.1316L46.6607 32.9845L44.9268 33.6192C44.7852 35.1667 44.2468 36.4435 43.3117 37.4497C43.2445 37.5632 42.8482 37.8931 42.1229 38.4395C40.0375 39.7648 38.6042 40.7521 37.8229 41.4014C37.1014 41.9933 36.4644 42.6652 35.912 43.4171C35.4588 43.9775 34.8912 44.9506 34.2091 46.3365C34.0362 46.5614 33.2492 48.5648 31.8481 52.3465Z" fill="#88AB8E"/>
<path d="M41.5434 33.7295L39.5695 31.6748L44.6798 32.4557C44.0584 41.6937 43.7271 48.1464 43.6861 51.8139C43.5969 55.6512 43.7328 60.4556 44.0938 66.2271L39.4939 65.9582C36.9693 52.9347 35.0397 43.5671 33.7048 37.8557L41.5434 33.7295Z" fill="#88AB8E"/>
<path d="M44.1967 87.6911L44.6832 87.695C46.1464 87.7053 47.206 87.7444 47.862 87.8124C48.7096 87.896 49.3184 88.0225 49.6883 88.1919C49.8666 88.2701 50.016 88.3597 50.1366 88.4608C50.2251 88.5001 50.3541 88.6724 50.5236 88.9775C50.6682 89.2924 50.709 89.7976 50.646 90.493L38.6792 90.6535L39.5422 87.5366L44.1967 87.6911Z" fill="black" fill-opacity="0.996078"/>
<path d="M90.844 42.2964L92.8168 42.2966L92.8167 89.9665L90.844 89.9667L90.844 42.2964Z" fill="#293855"/>
<path d="M79.6296 33.2236L83.2125 33.2238L86.7953 33.2239C86.7953 35.7473 86.7953 38.2707 86.7953 40.7941C84.4067 40.7942 82.0182 40.7943 79.6296 40.7944C79.6296 38.2708 79.6296 35.7472 79.6296 33.2236Z" fill="white"/>
<path d="M82.8536 34.3145L88.3606 34.3145C88.5316 34.3145 88.6702 34.4539 88.6702 34.6259V38.2688C88.6702 38.4408 88.5316 38.5803 88.3605 38.5803L82.8536 38.5803C82.7715 38.5803 82.6927 38.5475 82.6346 38.4891C82.5766 38.4307 82.5439 38.3515 82.5439 38.2689V34.6259C82.5439 34.5433 82.5766 34.4641 82.6346 34.4057C82.6927 34.3473 82.7715 34.3145 82.8536 34.3145ZM82.8536 34.9374L83.1632 34.6259V38.2689L82.8536 37.9574L88.3605 37.9574L88.0509 38.2688V34.6259L88.3605 34.9374L82.8536 34.9374Z" fill="white"/>
</g>
<defs>
<clipPath id="clip0_510_2133">
<rect width="102" height="98" fill="white"/>
</clipPath>
</defs>
</svg>
